<mxfile host="app.diagrams.net" agent="Mozilla/5.0 (Windows NT 10.0; Win64; x64) AppleWebKit/537.36 (KHTML, like Gecko) Chrome/141.0.0.0 Safari/537.36" version="28.2.7">
  <diagram name="Page-1" id="Dj7-esxNqVV3fgG8kr8d">
    <mxGraphModel dx="3377" dy="2531" grid="1" gridSize="10" guides="1" tooltips="1" connect="1" arrows="1" fold="1" page="0" pageScale="1" pageWidth="827" pageHeight="1169" math="0" shadow="0">
      <root>
        <mxCell id="0" />
        <mxCell id="1" parent="0" />
        <mxCell id="PifKSuSJS3Elm9ButAE0-14" value="User" style="swimlane;fontStyle=0;childLayout=stackLayout;horizontal=1;startSize=26;horizontalStack=0;resizeParent=1;resizeParentMax=0;resizeLast=0;collapsible=1;marginBottom=0;align=center;fontSize=14;" parent="1" vertex="1">
          <mxGeometry x="370" y="560" width="180" height="278" as="geometry">
            <mxRectangle x="470" y="590" width="70" height="30" as="alternateBounds" />
          </mxGeometry>
        </mxCell>
        <mxCell id="PifKSuSJS3Elm9ButAE0-15" value="id&lt;span style=&quot;white-space: pre;&quot;&gt;&#x9;&lt;/span&gt;" style="text;strokeColor=default;fillColor=none;spacingLeft=4;spacingRight=4;overflow=hidden;rotatable=0;points=[[0,0.5],[1,0.5]];portConstraint=eastwest;fontSize=12;whiteSpace=wrap;html=1;spacing=2;" parent="PifKSuSJS3Elm9ButAE0-14" vertex="1">
          <mxGeometry y="26" width="180" height="28" as="geometry" />
        </mxCell>
        <mxCell id="PifKSuSJS3Elm9ButAE0-16" value="first_name" style="text;strokeColor=default;fillColor=none;spacingLeft=4;spacingRight=4;overflow=hidden;rotatable=0;points=[[0,0.5],[1,0.5]];portConstraint=eastwest;fontSize=12;whiteSpace=wrap;html=1;spacing=2;" parent="PifKSuSJS3Elm9ButAE0-14" vertex="1">
          <mxGeometry y="54" width="180" height="28" as="geometry" />
        </mxCell>
        <mxCell id="PifKSuSJS3Elm9ButAE0-17" value="last_name" style="text;strokeColor=default;fillColor=none;spacingLeft=4;spacingRight=4;overflow=hidden;rotatable=0;points=[[0,0.5],[1,0.5]];portConstraint=eastwest;fontSize=12;whiteSpace=wrap;html=1;spacing=2;" parent="PifKSuSJS3Elm9ButAE0-14" vertex="1">
          <mxGeometry y="82" width="180" height="28" as="geometry" />
        </mxCell>
        <mxCell id="PifKSuSJS3Elm9ButAE0-20" value="email" style="text;strokeColor=default;fillColor=none;spacingLeft=4;spacingRight=4;overflow=hidden;rotatable=0;points=[[0,0.5],[1,0.5]];portConstraint=eastwest;fontSize=12;whiteSpace=wrap;html=1;spacing=2;" parent="PifKSuSJS3Elm9ButAE0-14" vertex="1">
          <mxGeometry y="110" width="180" height="28" as="geometry" />
        </mxCell>
        <mxCell id="PifKSuSJS3Elm9ButAE0-21" value="email_verified" style="text;strokeColor=default;fillColor=none;spacingLeft=4;spacingRight=4;overflow=hidden;rotatable=0;points=[[0,0.5],[1,0.5]];portConstraint=eastwest;fontSize=12;whiteSpace=wrap;html=1;spacing=2;" parent="PifKSuSJS3Elm9ButAE0-14" vertex="1">
          <mxGeometry y="138" width="180" height="28" as="geometry" />
        </mxCell>
        <mxCell id="PifKSuSJS3Elm9ButAE0-22" value="password_hash" style="text;strokeColor=default;fillColor=none;spacingLeft=4;spacingRight=4;overflow=hidden;rotatable=0;points=[[0,0.5],[1,0.5]];portConstraint=eastwest;fontSize=12;whiteSpace=wrap;html=1;spacing=2;" parent="PifKSuSJS3Elm9ButAE0-14" vertex="1">
          <mxGeometry y="166" width="180" height="28" as="geometry" />
        </mxCell>
        <mxCell id="JkOmBQKzo-Y1mtd10rYn-1" value="is_blocked" style="text;strokeColor=default;fillColor=none;spacingLeft=4;spacingRight=4;overflow=hidden;rotatable=0;points=[[0,0.5],[1,0.5]];portConstraint=eastwest;fontSize=12;whiteSpace=wrap;html=1;spacing=2;" vertex="1" parent="PifKSuSJS3Elm9ButAE0-14">
          <mxGeometry y="194" width="180" height="28" as="geometry" />
        </mxCell>
        <mxCell id="PifKSuSJS3Elm9ButAE0-23" value="created_at" style="text;strokeColor=default;fillColor=none;spacingLeft=4;spacingRight=4;overflow=hidden;rotatable=0;points=[[0,0.5],[1,0.5]];portConstraint=eastwest;fontSize=12;whiteSpace=wrap;html=1;spacing=2;" parent="PifKSuSJS3Elm9ButAE0-14" vertex="1">
          <mxGeometry y="222" width="180" height="28" as="geometry" />
        </mxCell>
        <mxCell id="PifKSuSJS3Elm9ButAE0-24" value="updated_at" style="text;strokeColor=default;fillColor=none;spacingLeft=4;spacingRight=4;overflow=hidden;rotatable=0;points=[[0,0.5],[1,0.5]];portConstraint=eastwest;fontSize=12;whiteSpace=wrap;html=1;spacing=2;" parent="PifKSuSJS3Elm9ButAE0-14" vertex="1">
          <mxGeometry y="250" width="180" height="28" as="geometry" />
        </mxCell>
        <mxCell id="JkOmBQKzo-Y1mtd10rYn-2" value="AuthProvider" style="swimlane;fontStyle=0;childLayout=stackLayout;horizontal=1;startSize=26;horizontalStack=0;resizeParent=1;resizeParentMax=0;resizeLast=0;collapsible=1;marginBottom=0;align=center;fontSize=14;" vertex="1" parent="1">
          <mxGeometry x="642" y="532" width="180" height="222" as="geometry">
            <mxRectangle x="470" y="590" width="70" height="30" as="alternateBounds" />
          </mxGeometry>
        </mxCell>
        <mxCell id="JkOmBQKzo-Y1mtd10rYn-3" value="id&lt;span style=&quot;white-space: pre;&quot;&gt;&#x9;&lt;/span&gt;" style="text;strokeColor=default;fillColor=none;spacingLeft=4;spacingRight=4;overflow=hidden;rotatable=0;points=[[0,0.5],[1,0.5]];portConstraint=eastwest;fontSize=12;whiteSpace=wrap;html=1;spacing=2;" vertex="1" parent="JkOmBQKzo-Y1mtd10rYn-2">
          <mxGeometry y="26" width="180" height="28" as="geometry" />
        </mxCell>
        <mxCell id="JkOmBQKzo-Y1mtd10rYn-4" value="user_id" style="text;strokeColor=default;fillColor=none;spacingLeft=4;spacingRight=4;overflow=hidden;rotatable=0;points=[[0,0.5],[1,0.5]];portConstraint=eastwest;fontSize=12;whiteSpace=wrap;html=1;spacing=2;" vertex="1" parent="JkOmBQKzo-Y1mtd10rYn-2">
          <mxGeometry y="54" width="180" height="28" as="geometry" />
        </mxCell>
        <mxCell id="JkOmBQKzo-Y1mtd10rYn-5" value="provider" style="text;strokeColor=default;fillColor=none;spacingLeft=4;spacingRight=4;overflow=hidden;rotatable=0;points=[[0,0.5],[1,0.5]];portConstraint=eastwest;fontSize=12;whiteSpace=wrap;html=1;spacing=2;" vertex="1" parent="JkOmBQKzo-Y1mtd10rYn-2">
          <mxGeometry y="82" width="180" height="28" as="geometry" />
        </mxCell>
        <mxCell id="JkOmBQKzo-Y1mtd10rYn-6" value="provider_user_id" style="text;strokeColor=default;fillColor=none;spacingLeft=4;spacingRight=4;overflow=hidden;rotatable=0;points=[[0,0.5],[1,0.5]];portConstraint=eastwest;fontSize=12;whiteSpace=wrap;html=1;spacing=2;" vertex="1" parent="JkOmBQKzo-Y1mtd10rYn-2">
          <mxGeometry y="110" width="180" height="28" as="geometry" />
        </mxCell>
        <mxCell id="JkOmBQKzo-Y1mtd10rYn-7" value="provider_data" style="text;strokeColor=default;fillColor=none;spacingLeft=4;spacingRight=4;overflow=hidden;rotatable=0;points=[[0,0.5],[1,0.5]];portConstraint=eastwest;fontSize=12;whiteSpace=wrap;html=1;spacing=2;" vertex="1" parent="JkOmBQKzo-Y1mtd10rYn-2">
          <mxGeometry y="138" width="180" height="28" as="geometry" />
        </mxCell>
        <mxCell id="JkOmBQKzo-Y1mtd10rYn-10" value="created_at" style="text;strokeColor=default;fillColor=none;spacingLeft=4;spacingRight=4;overflow=hidden;rotatable=0;points=[[0,0.5],[1,0.5]];portConstraint=eastwest;fontSize=12;whiteSpace=wrap;html=1;spacing=2;" vertex="1" parent="JkOmBQKzo-Y1mtd10rYn-2">
          <mxGeometry y="166" width="180" height="28" as="geometry" />
        </mxCell>
        <mxCell id="JkOmBQKzo-Y1mtd10rYn-11" value="updated_at" style="text;strokeColor=default;fillColor=none;spacingLeft=4;spacingRight=4;overflow=hidden;rotatable=0;points=[[0,0.5],[1,0.5]];portConstraint=eastwest;fontSize=12;whiteSpace=wrap;html=1;spacing=2;" vertex="1" parent="JkOmBQKzo-Y1mtd10rYn-2">
          <mxGeometry y="194" width="180" height="28" as="geometry" />
        </mxCell>
        <mxCell id="JkOmBQKzo-Y1mtd10rYn-12" style="edgeStyle=orthogonalEdgeStyle;rounded=0;orthogonalLoop=1;jettySize=auto;html=1;exitX=0;exitY=0.5;exitDx=0;exitDy=0;entryX=1;entryY=0.5;entryDx=0;entryDy=0;" edge="1" parent="1" source="JkOmBQKzo-Y1mtd10rYn-4" target="PifKSuSJS3Elm9ButAE0-15">
          <mxGeometry relative="1" as="geometry" />
        </mxCell>
        <mxCell id="JkOmBQKzo-Y1mtd10rYn-13" value="EmailVerificationToken" style="swimlane;fontStyle=0;childLayout=stackLayout;horizontal=1;startSize=26;horizontalStack=0;resizeParent=1;resizeParentMax=0;resizeLast=0;collapsible=1;marginBottom=0;align=center;fontSize=14;" vertex="1" parent="1">
          <mxGeometry x="642" y="790" width="180" height="194" as="geometry">
            <mxRectangle x="470" y="590" width="70" height="30" as="alternateBounds" />
          </mxGeometry>
        </mxCell>
        <mxCell id="JkOmBQKzo-Y1mtd10rYn-14" value="id&lt;span style=&quot;white-space: pre;&quot;&gt;&#x9;&lt;/span&gt;" style="text;strokeColor=default;fillColor=none;spacingLeft=4;spacingRight=4;overflow=hidden;rotatable=0;points=[[0,0.5],[1,0.5]];portConstraint=eastwest;fontSize=12;whiteSpace=wrap;html=1;spacing=2;" vertex="1" parent="JkOmBQKzo-Y1mtd10rYn-13">
          <mxGeometry y="26" width="180" height="28" as="geometry" />
        </mxCell>
        <mxCell id="JkOmBQKzo-Y1mtd10rYn-15" value="user_id" style="text;strokeColor=default;fillColor=none;spacingLeft=4;spacingRight=4;overflow=hidden;rotatable=0;points=[[0,0.5],[1,0.5]];portConstraint=eastwest;fontSize=12;whiteSpace=wrap;html=1;spacing=2;" vertex="1" parent="JkOmBQKzo-Y1mtd10rYn-13">
          <mxGeometry y="54" width="180" height="28" as="geometry" />
        </mxCell>
        <mxCell id="JkOmBQKzo-Y1mtd10rYn-16" value="token" style="text;strokeColor=default;fillColor=none;spacingLeft=4;spacingRight=4;overflow=hidden;rotatable=0;points=[[0,0.5],[1,0.5]];portConstraint=eastwest;fontSize=12;whiteSpace=wrap;html=1;spacing=2;" vertex="1" parent="JkOmBQKzo-Y1mtd10rYn-13">
          <mxGeometry y="82" width="180" height="28" as="geometry" />
        </mxCell>
        <mxCell id="JkOmBQKzo-Y1mtd10rYn-17" value="expires_at" style="text;strokeColor=default;fillColor=none;spacingLeft=4;spacingRight=4;overflow=hidden;rotatable=0;points=[[0,0.5],[1,0.5]];portConstraint=eastwest;fontSize=12;whiteSpace=wrap;html=1;spacing=2;" vertex="1" parent="JkOmBQKzo-Y1mtd10rYn-13">
          <mxGeometry y="110" width="180" height="28" as="geometry" />
        </mxCell>
        <mxCell id="JkOmBQKzo-Y1mtd10rYn-18" value="is_used" style="text;strokeColor=default;fillColor=none;spacingLeft=4;spacingRight=4;overflow=hidden;rotatable=0;points=[[0,0.5],[1,0.5]];portConstraint=eastwest;fontSize=12;whiteSpace=wrap;html=1;spacing=2;" vertex="1" parent="JkOmBQKzo-Y1mtd10rYn-13">
          <mxGeometry y="138" width="180" height="28" as="geometry" />
        </mxCell>
        <mxCell id="JkOmBQKzo-Y1mtd10rYn-31" value="created_at" style="text;strokeColor=default;fillColor=none;spacingLeft=4;spacingRight=4;overflow=hidden;rotatable=0;points=[[0,0.5],[1,0.5]];portConstraint=eastwest;fontSize=12;whiteSpace=wrap;html=1;spacing=2;" vertex="1" parent="JkOmBQKzo-Y1mtd10rYn-13">
          <mxGeometry y="166" width="180" height="28" as="geometry" />
        </mxCell>
        <mxCell id="JkOmBQKzo-Y1mtd10rYn-21" style="edgeStyle=orthogonalEdgeStyle;rounded=0;orthogonalLoop=1;jettySize=auto;html=1;exitX=0;exitY=0.5;exitDx=0;exitDy=0;entryX=1;entryY=0.5;entryDx=0;entryDy=0;" edge="1" parent="1" source="JkOmBQKzo-Y1mtd10rYn-15" target="PifKSuSJS3Elm9ButAE0-15">
          <mxGeometry relative="1" as="geometry" />
        </mxCell>
        <mxCell id="JkOmBQKzo-Y1mtd10rYn-22" value="PasswordResetTokens" style="swimlane;fontStyle=0;childLayout=stackLayout;horizontal=1;startSize=26;horizontalStack=0;resizeParent=1;resizeParentMax=0;resizeLast=0;collapsible=1;marginBottom=0;align=center;fontSize=14;" vertex="1" parent="1">
          <mxGeometry x="642" y="1026" width="180" height="194" as="geometry">
            <mxRectangle x="470" y="590" width="70" height="30" as="alternateBounds" />
          </mxGeometry>
        </mxCell>
        <mxCell id="JkOmBQKzo-Y1mtd10rYn-23" value="id&lt;span style=&quot;white-space: pre;&quot;&gt;&#x9;&lt;/span&gt;" style="text;strokeColor=default;fillColor=none;spacingLeft=4;spacingRight=4;overflow=hidden;rotatable=0;points=[[0,0.5],[1,0.5]];portConstraint=eastwest;fontSize=12;whiteSpace=wrap;html=1;spacing=2;" vertex="1" parent="JkOmBQKzo-Y1mtd10rYn-22">
          <mxGeometry y="26" width="180" height="28" as="geometry" />
        </mxCell>
        <mxCell id="JkOmBQKzo-Y1mtd10rYn-24" value="user_id" style="text;strokeColor=default;fillColor=none;spacingLeft=4;spacingRight=4;overflow=hidden;rotatable=0;points=[[0,0.5],[1,0.5]];portConstraint=eastwest;fontSize=12;whiteSpace=wrap;html=1;spacing=2;" vertex="1" parent="JkOmBQKzo-Y1mtd10rYn-22">
          <mxGeometry y="54" width="180" height="28" as="geometry" />
        </mxCell>
        <mxCell id="JkOmBQKzo-Y1mtd10rYn-25" value="token" style="text;strokeColor=default;fillColor=none;spacingLeft=4;spacingRight=4;overflow=hidden;rotatable=0;points=[[0,0.5],[1,0.5]];portConstraint=eastwest;fontSize=12;whiteSpace=wrap;html=1;spacing=2;" vertex="1" parent="JkOmBQKzo-Y1mtd10rYn-22">
          <mxGeometry y="82" width="180" height="28" as="geometry" />
        </mxCell>
        <mxCell id="JkOmBQKzo-Y1mtd10rYn-26" value="expires_at" style="text;strokeColor=default;fillColor=none;spacingLeft=4;spacingRight=4;overflow=hidden;rotatable=0;points=[[0,0.5],[1,0.5]];portConstraint=eastwest;fontSize=12;whiteSpace=wrap;html=1;spacing=2;" vertex="1" parent="JkOmBQKzo-Y1mtd10rYn-22">
          <mxGeometry y="110" width="180" height="28" as="geometry" />
        </mxCell>
        <mxCell id="JkOmBQKzo-Y1mtd10rYn-27" value="is_used" style="text;strokeColor=default;fillColor=none;spacingLeft=4;spacingRight=4;overflow=hidden;rotatable=0;points=[[0,0.5],[1,0.5]];portConstraint=eastwest;fontSize=12;whiteSpace=wrap;html=1;spacing=2;" vertex="1" parent="JkOmBQKzo-Y1mtd10rYn-22">
          <mxGeometry y="138" width="180" height="28" as="geometry" />
        </mxCell>
        <mxCell id="JkOmBQKzo-Y1mtd10rYn-30" value="created_at" style="text;strokeColor=default;fillColor=none;spacingLeft=4;spacingRight=4;overflow=hidden;rotatable=0;points=[[0,0.5],[1,0.5]];portConstraint=eastwest;fontSize=12;whiteSpace=wrap;html=1;spacing=2;" vertex="1" parent="JkOmBQKzo-Y1mtd10rYn-22">
          <mxGeometry y="166" width="180" height="28" as="geometry" />
        </mxCell>
        <mxCell id="JkOmBQKzo-Y1mtd10rYn-28" style="edgeStyle=orthogonalEdgeStyle;rounded=0;orthogonalLoop=1;jettySize=auto;html=1;exitX=0;exitY=0.5;exitDx=0;exitDy=0;" edge="1" parent="1" source="JkOmBQKzo-Y1mtd10rYn-25" target="PifKSuSJS3Elm9ButAE0-15">
          <mxGeometry relative="1" as="geometry" />
        </mxCell>
        <mxCell id="JkOmBQKzo-Y1mtd10rYn-32" value="Admins" style="swimlane;fontStyle=0;childLayout=stackLayout;horizontal=1;startSize=26;horizontalStack=0;resizeParent=1;resizeParentMax=0;resizeLast=0;collapsible=1;marginBottom=0;align=center;fontSize=14;" vertex="1" parent="1">
          <mxGeometry x="110" y="850" width="180" height="250" as="geometry">
            <mxRectangle x="470" y="590" width="70" height="30" as="alternateBounds" />
          </mxGeometry>
        </mxCell>
        <mxCell id="JkOmBQKzo-Y1mtd10rYn-33" value="id&lt;span style=&quot;white-space: pre;&quot;&gt;&#x9;&lt;/span&gt;" style="text;strokeColor=default;fillColor=none;spacingLeft=4;spacingRight=4;overflow=hidden;rotatable=0;points=[[0,0.5],[1,0.5]];portConstraint=eastwest;fontSize=12;whiteSpace=wrap;html=1;spacing=2;" vertex="1" parent="JkOmBQKzo-Y1mtd10rYn-32">
          <mxGeometry y="26" width="180" height="28" as="geometry" />
        </mxCell>
        <mxCell id="JkOmBQKzo-Y1mtd10rYn-34" value="username" style="text;strokeColor=default;fillColor=none;spacingLeft=4;spacingRight=4;overflow=hidden;rotatable=0;points=[[0,0.5],[1,0.5]];portConstraint=eastwest;fontSize=12;whiteSpace=wrap;html=1;spacing=2;" vertex="1" parent="JkOmBQKzo-Y1mtd10rYn-32">
          <mxGeometry y="54" width="180" height="28" as="geometry" />
        </mxCell>
        <mxCell id="JkOmBQKzo-Y1mtd10rYn-35" value="email" style="text;strokeColor=default;fillColor=none;spacingLeft=4;spacingRight=4;overflow=hidden;rotatable=0;points=[[0,0.5],[1,0.5]];portConstraint=eastwest;fontSize=12;whiteSpace=wrap;html=1;spacing=2;" vertex="1" parent="JkOmBQKzo-Y1mtd10rYn-32">
          <mxGeometry y="82" width="180" height="28" as="geometry" />
        </mxCell>
        <mxCell id="JkOmBQKzo-Y1mtd10rYn-36" value="password_hash" style="text;strokeColor=default;fillColor=none;spacingLeft=4;spacingRight=4;overflow=hidden;rotatable=0;points=[[0,0.5],[1,0.5]];portConstraint=eastwest;fontSize=12;whiteSpace=wrap;html=1;spacing=2;" vertex="1" parent="JkOmBQKzo-Y1mtd10rYn-32">
          <mxGeometry y="110" width="180" height="28" as="geometry" />
        </mxCell>
        <mxCell id="JkOmBQKzo-Y1mtd10rYn-37" value="is_super" style="text;strokeColor=default;fillColor=none;spacingLeft=4;spacingRight=4;overflow=hidden;rotatable=0;points=[[0,0.5],[1,0.5]];portConstraint=eastwest;fontSize=12;whiteSpace=wrap;html=1;spacing=2;" vertex="1" parent="JkOmBQKzo-Y1mtd10rYn-32">
          <mxGeometry y="138" width="180" height="28" as="geometry" />
        </mxCell>
        <mxCell id="JkOmBQKzo-Y1mtd10rYn-38" value="is_active" style="text;strokeColor=default;fillColor=none;spacingLeft=4;spacingRight=4;overflow=hidden;rotatable=0;points=[[0,0.5],[1,0.5]];portConstraint=eastwest;fontSize=12;whiteSpace=wrap;html=1;spacing=2;" vertex="1" parent="JkOmBQKzo-Y1mtd10rYn-32">
          <mxGeometry y="166" width="180" height="28" as="geometry" />
        </mxCell>
        <mxCell id="JkOmBQKzo-Y1mtd10rYn-40" value="created_at" style="text;strokeColor=default;fillColor=none;spacingLeft=4;spacingRight=4;overflow=hidden;rotatable=0;points=[[0,0.5],[1,0.5]];portConstraint=eastwest;fontSize=12;whiteSpace=wrap;html=1;spacing=2;" vertex="1" parent="JkOmBQKzo-Y1mtd10rYn-32">
          <mxGeometry y="194" width="180" height="28" as="geometry" />
        </mxCell>
        <mxCell id="JkOmBQKzo-Y1mtd10rYn-41" value="updated_at" style="text;strokeColor=default;fillColor=none;spacingLeft=4;spacingRight=4;overflow=hidden;rotatable=0;points=[[0,0.5],[1,0.5]];portConstraint=eastwest;fontSize=12;whiteSpace=wrap;html=1;spacing=2;" vertex="1" parent="JkOmBQKzo-Y1mtd10rYn-32">
          <mxGeometry y="222" width="180" height="28" as="geometry" />
        </mxCell>
        <mxCell id="JkOmBQKzo-Y1mtd10rYn-42" value="ActivityLogs" style="swimlane;fontStyle=0;childLayout=stackLayout;horizontal=1;startSize=26;horizontalStack=0;resizeParent=1;resizeParentMax=0;resizeLast=0;collapsible=1;marginBottom=0;align=center;fontSize=14;" vertex="1" parent="1">
          <mxGeometry x="110" y="532" width="180" height="278" as="geometry">
            <mxRectangle x="470" y="590" width="70" height="30" as="alternateBounds" />
          </mxGeometry>
        </mxCell>
        <mxCell id="JkOmBQKzo-Y1mtd10rYn-43" value="id&lt;span style=&quot;white-space: pre;&quot;&gt;&#x9;&lt;/span&gt;" style="text;strokeColor=default;fillColor=none;spacingLeft=4;spacingRight=4;overflow=hidden;rotatable=0;points=[[0,0.5],[1,0.5]];portConstraint=eastwest;fontSize=12;whiteSpace=wrap;html=1;spacing=2;" vertex="1" parent="JkOmBQKzo-Y1mtd10rYn-42">
          <mxGeometry y="26" width="180" height="28" as="geometry" />
        </mxCell>
        <mxCell id="JkOmBQKzo-Y1mtd10rYn-44" value="action_user_id" style="text;strokeColor=default;fillColor=none;spacingLeft=4;spacingRight=4;overflow=hidden;rotatable=0;points=[[0,0.5],[1,0.5]];portConstraint=eastwest;fontSize=12;whiteSpace=wrap;html=1;spacing=2;" vertex="1" parent="JkOmBQKzo-Y1mtd10rYn-42">
          <mxGeometry y="54" width="180" height="28" as="geometry" />
        </mxCell>
        <mxCell id="JkOmBQKzo-Y1mtd10rYn-45" value="action_admin_id" style="text;strokeColor=default;fillColor=none;spacingLeft=4;spacingRight=4;overflow=hidden;rotatable=0;points=[[0,0.5],[1,0.5]];portConstraint=eastwest;fontSize=12;whiteSpace=wrap;html=1;spacing=2;" vertex="1" parent="JkOmBQKzo-Y1mtd10rYn-42">
          <mxGeometry y="82" width="180" height="28" as="geometry" />
        </mxCell>
        <mxCell id="JkOmBQKzo-Y1mtd10rYn-46" value="action" style="text;strokeColor=default;fillColor=none;spacingLeft=4;spacingRight=4;overflow=hidden;rotatable=0;points=[[0,0.5],[1,0.5]];portConstraint=eastwest;fontSize=12;whiteSpace=wrap;html=1;spacing=2;" vertex="1" parent="JkOmBQKzo-Y1mtd10rYn-42">
          <mxGeometry y="110" width="180" height="28" as="geometry" />
        </mxCell>
        <mxCell id="JkOmBQKzo-Y1mtd10rYn-47" value="entity_type" style="text;strokeColor=default;fillColor=none;spacingLeft=4;spacingRight=4;overflow=hidden;rotatable=0;points=[[0,0.5],[1,0.5]];portConstraint=eastwest;fontSize=12;whiteSpace=wrap;html=1;spacing=2;" vertex="1" parent="JkOmBQKzo-Y1mtd10rYn-42">
          <mxGeometry y="138" width="180" height="28" as="geometry" />
        </mxCell>
        <mxCell id="JkOmBQKzo-Y1mtd10rYn-48" value="entity_id" style="text;strokeColor=default;fillColor=none;spacingLeft=4;spacingRight=4;overflow=hidden;rotatable=0;points=[[0,0.5],[1,0.5]];portConstraint=eastwest;fontSize=12;whiteSpace=wrap;html=1;spacing=2;" vertex="1" parent="JkOmBQKzo-Y1mtd10rYn-42">
          <mxGeometry y="166" width="180" height="28" as="geometry" />
        </mxCell>
        <mxCell id="JkOmBQKzo-Y1mtd10rYn-49" value="details" style="text;strokeColor=default;fillColor=none;spacingLeft=4;spacingRight=4;overflow=hidden;rotatable=0;points=[[0,0.5],[1,0.5]];portConstraint=eastwest;fontSize=12;whiteSpace=wrap;html=1;spacing=2;" vertex="1" parent="JkOmBQKzo-Y1mtd10rYn-42">
          <mxGeometry y="194" width="180" height="28" as="geometry" />
        </mxCell>
        <mxCell id="JkOmBQKzo-Y1mtd10rYn-50" value="ip_address" style="text;strokeColor=default;fillColor=none;spacingLeft=4;spacingRight=4;overflow=hidden;rotatable=0;points=[[0,0.5],[1,0.5]];portConstraint=eastwest;fontSize=12;whiteSpace=wrap;html=1;spacing=2;" vertex="1" parent="JkOmBQKzo-Y1mtd10rYn-42">
          <mxGeometry y="222" width="180" height="28" as="geometry" />
        </mxCell>
        <mxCell id="JkOmBQKzo-Y1mtd10rYn-51" value="user_agent" style="text;strokeColor=default;fillColor=none;spacingLeft=4;spacingRight=4;overflow=hidden;rotatable=0;points=[[0,0.5],[1,0.5]];portConstraint=eastwest;fontSize=12;whiteSpace=wrap;html=1;spacing=2;" vertex="1" parent="JkOmBQKzo-Y1mtd10rYn-42">
          <mxGeometry y="250" width="180" height="28" as="geometry" />
        </mxCell>
        <mxCell id="JkOmBQKzo-Y1mtd10rYn-53" style="edgeStyle=orthogonalEdgeStyle;rounded=0;orthogonalLoop=1;jettySize=auto;html=1;exitX=1;exitY=0.5;exitDx=0;exitDy=0;entryX=0;entryY=0.5;entryDx=0;entryDy=0;" edge="1" parent="1" source="JkOmBQKzo-Y1mtd10rYn-44" target="PifKSuSJS3Elm9ButAE0-15">
          <mxGeometry relative="1" as="geometry" />
        </mxCell>
        <mxCell id="JkOmBQKzo-Y1mtd10rYn-54" style="edgeStyle=orthogonalEdgeStyle;rounded=0;orthogonalLoop=1;jettySize=auto;html=1;exitX=0;exitY=0.5;exitDx=0;exitDy=0;entryX=0;entryY=0.5;entryDx=0;entryDy=0;" edge="1" parent="1" source="JkOmBQKzo-Y1mtd10rYn-45" target="JkOmBQKzo-Y1mtd10rYn-33">
          <mxGeometry relative="1" as="geometry" />
        </mxCell>
        <mxCell id="JkOmBQKzo-Y1mtd10rYn-55" value="Categories" style="swimlane;fontStyle=0;childLayout=stackLayout;horizontal=1;startSize=26;horizontalStack=0;resizeParent=1;resizeParentMax=0;resizeLast=0;collapsible=1;marginBottom=0;align=center;fontSize=14;" vertex="1" parent="1">
          <mxGeometry x="130" y="221" width="180" height="250" as="geometry">
            <mxRectangle x="470" y="590" width="70" height="30" as="alternateBounds" />
          </mxGeometry>
        </mxCell>
        <mxCell id="JkOmBQKzo-Y1mtd10rYn-56" value="id&lt;span style=&quot;white-space: pre;&quot;&gt;&#x9;&lt;/span&gt;" style="text;strokeColor=default;fillColor=none;spacingLeft=4;spacingRight=4;overflow=hidden;rotatable=0;points=[[0,0.5],[1,0.5]];portConstraint=eastwest;fontSize=12;whiteSpace=wrap;html=1;spacing=2;" vertex="1" parent="JkOmBQKzo-Y1mtd10rYn-55">
          <mxGeometry y="26" width="180" height="28" as="geometry" />
        </mxCell>
        <mxCell id="JkOmBQKzo-Y1mtd10rYn-63" value="name" style="text;strokeColor=default;fillColor=none;spacingLeft=4;spacingRight=4;overflow=hidden;rotatable=0;points=[[0,0.5],[1,0.5]];portConstraint=eastwest;fontSize=12;whiteSpace=wrap;html=1;spacing=2;" vertex="1" parent="JkOmBQKzo-Y1mtd10rYn-55">
          <mxGeometry y="54" width="180" height="28" as="geometry" />
        </mxCell>
        <mxCell id="JkOmBQKzo-Y1mtd10rYn-57" value="slug" style="text;strokeColor=default;fillColor=none;spacingLeft=4;spacingRight=4;overflow=hidden;rotatable=0;points=[[0,0.5],[1,0.5]];portConstraint=eastwest;fontSize=12;whiteSpace=wrap;html=1;spacing=2;" vertex="1" parent="JkOmBQKzo-Y1mtd10rYn-55">
          <mxGeometry y="82" width="180" height="28" as="geometry" />
        </mxCell>
        <mxCell id="JkOmBQKzo-Y1mtd10rYn-64" style="edgeStyle=orthogonalEdgeStyle;rounded=0;orthogonalLoop=1;jettySize=auto;html=1;exitX=0;exitY=0.5;exitDx=0;exitDy=0;entryX=0;entryY=0.5;entryDx=0;entryDy=0;" edge="1" parent="JkOmBQKzo-Y1mtd10rYn-55" source="JkOmBQKzo-Y1mtd10rYn-58" target="JkOmBQKzo-Y1mtd10rYn-56">
          <mxGeometry relative="1" as="geometry" />
        </mxCell>
        <mxCell id="JkOmBQKzo-Y1mtd10rYn-58" value="parent_id" style="text;strokeColor=default;fillColor=none;spacingLeft=4;spacingRight=4;overflow=hidden;rotatable=0;points=[[0,0.5],[1,0.5]];portConstraint=eastwest;fontSize=12;whiteSpace=wrap;html=1;spacing=2;" vertex="1" parent="JkOmBQKzo-Y1mtd10rYn-55">
          <mxGeometry y="110" width="180" height="28" as="geometry" />
        </mxCell>
        <mxCell id="JkOmBQKzo-Y1mtd10rYn-59" value="position" style="text;strokeColor=default;fillColor=none;spacingLeft=4;spacingRight=4;overflow=hidden;rotatable=0;points=[[0,0.5],[1,0.5]];portConstraint=eastwest;fontSize=12;whiteSpace=wrap;html=1;spacing=2;" vertex="1" parent="JkOmBQKzo-Y1mtd10rYn-55">
          <mxGeometry y="138" width="180" height="28" as="geometry" />
        </mxCell>
        <mxCell id="JkOmBQKzo-Y1mtd10rYn-60" value="is_active" style="text;strokeColor=default;fillColor=none;spacingLeft=4;spacingRight=4;overflow=hidden;rotatable=0;points=[[0,0.5],[1,0.5]];portConstraint=eastwest;fontSize=12;whiteSpace=wrap;html=1;spacing=2;" vertex="1" parent="JkOmBQKzo-Y1mtd10rYn-55">
          <mxGeometry y="166" width="180" height="28" as="geometry" />
        </mxCell>
        <mxCell id="JkOmBQKzo-Y1mtd10rYn-61" value="created_at" style="text;strokeColor=default;fillColor=none;spacingLeft=4;spacingRight=4;overflow=hidden;rotatable=0;points=[[0,0.5],[1,0.5]];portConstraint=eastwest;fontSize=12;whiteSpace=wrap;html=1;spacing=2;" vertex="1" parent="JkOmBQKzo-Y1mtd10rYn-55">
          <mxGeometry y="194" width="180" height="28" as="geometry" />
        </mxCell>
        <mxCell id="JkOmBQKzo-Y1mtd10rYn-62" value="updated_at" style="text;strokeColor=default;fillColor=none;spacingLeft=4;spacingRight=4;overflow=hidden;rotatable=0;points=[[0,0.5],[1,0.5]];portConstraint=eastwest;fontSize=12;whiteSpace=wrap;html=1;spacing=2;" vertex="1" parent="JkOmBQKzo-Y1mtd10rYn-55">
          <mxGeometry y="222" width="180" height="28" as="geometry" />
        </mxCell>
        <mxCell id="JkOmBQKzo-Y1mtd10rYn-65" value="Artist" style="swimlane;fontStyle=0;childLayout=stackLayout;horizontal=1;startSize=26;horizontalStack=0;resizeParent=1;resizeParentMax=0;resizeLast=0;collapsible=1;marginBottom=0;align=center;fontSize=14;" vertex="1" parent="1">
          <mxGeometry x="610" y="194" width="180" height="250" as="geometry">
            <mxRectangle x="470" y="590" width="70" height="30" as="alternateBounds" />
          </mxGeometry>
        </mxCell>
        <mxCell id="JkOmBQKzo-Y1mtd10rYn-66" value="id&lt;span style=&quot;white-space: pre;&quot;&gt;&#x9;&lt;/span&gt;" style="text;strokeColor=default;fillColor=none;spacingLeft=4;spacingRight=4;overflow=hidden;rotatable=0;points=[[0,0.5],[1,0.5]];portConstraint=eastwest;fontSize=12;whiteSpace=wrap;html=1;spacing=2;" vertex="1" parent="JkOmBQKzo-Y1mtd10rYn-65">
          <mxGeometry y="26" width="180" height="28" as="geometry" />
        </mxCell>
        <mxCell id="JkOmBQKzo-Y1mtd10rYn-67" value="name" style="text;strokeColor=default;fillColor=none;spacingLeft=4;spacingRight=4;overflow=hidden;rotatable=0;points=[[0,0.5],[1,0.5]];portConstraint=eastwest;fontSize=12;whiteSpace=wrap;html=1;spacing=2;" vertex="1" parent="JkOmBQKzo-Y1mtd10rYn-65">
          <mxGeometry y="54" width="180" height="28" as="geometry" />
        </mxCell>
        <mxCell id="JkOmBQKzo-Y1mtd10rYn-68" value="slug" style="text;strokeColor=default;fillColor=none;spacingLeft=4;spacingRight=4;overflow=hidden;rotatable=0;points=[[0,0.5],[1,0.5]];portConstraint=eastwest;fontSize=12;whiteSpace=wrap;html=1;spacing=2;" vertex="1" parent="JkOmBQKzo-Y1mtd10rYn-65">
          <mxGeometry y="82" width="180" height="28" as="geometry" />
        </mxCell>
        <mxCell id="JkOmBQKzo-Y1mtd10rYn-70" value="profile_image_id" style="text;strokeColor=default;fillColor=none;spacingLeft=4;spacingRight=4;overflow=hidden;rotatable=0;points=[[0,0.5],[1,0.5]];portConstraint=eastwest;fontSize=12;whiteSpace=wrap;html=1;spacing=2;" vertex="1" parent="JkOmBQKzo-Y1mtd10rYn-65">
          <mxGeometry y="110" width="180" height="28" as="geometry" />
        </mxCell>
        <mxCell id="JkOmBQKzo-Y1mtd10rYn-71" value="website_url" style="text;strokeColor=default;fillColor=none;spacingLeft=4;spacingRight=4;overflow=hidden;rotatable=0;points=[[0,0.5],[1,0.5]];portConstraint=eastwest;fontSize=12;whiteSpace=wrap;html=1;spacing=2;" vertex="1" parent="JkOmBQKzo-Y1mtd10rYn-65">
          <mxGeometry y="138" width="180" height="28" as="geometry" />
        </mxCell>
        <mxCell id="JkOmBQKzo-Y1mtd10rYn-72" value="is_featured" style="text;strokeColor=default;fillColor=none;spacingLeft=4;spacingRight=4;overflow=hidden;rotatable=0;points=[[0,0.5],[1,0.5]];portConstraint=eastwest;fontSize=12;whiteSpace=wrap;html=1;spacing=2;" vertex="1" parent="JkOmBQKzo-Y1mtd10rYn-65">
          <mxGeometry y="166" width="180" height="28" as="geometry" />
        </mxCell>
        <mxCell id="JkOmBQKzo-Y1mtd10rYn-73" value="created_at" style="text;strokeColor=default;fillColor=none;spacingLeft=4;spacingRight=4;overflow=hidden;rotatable=0;points=[[0,0.5],[1,0.5]];portConstraint=eastwest;fontSize=12;whiteSpace=wrap;html=1;spacing=2;" vertex="1" parent="JkOmBQKzo-Y1mtd10rYn-65">
          <mxGeometry y="194" width="180" height="28" as="geometry" />
        </mxCell>
        <mxCell id="JkOmBQKzo-Y1mtd10rYn-74" value="updated_at" style="text;strokeColor=default;fillColor=none;spacingLeft=4;spacingRight=4;overflow=hidden;rotatable=0;points=[[0,0.5],[1,0.5]];portConstraint=eastwest;fontSize=12;whiteSpace=wrap;html=1;spacing=2;" vertex="1" parent="JkOmBQKzo-Y1mtd10rYn-65">
          <mxGeometry y="222" width="180" height="28" as="geometry" />
        </mxCell>
        <mxCell id="JkOmBQKzo-Y1mtd10rYn-76" value="Item" style="swimlane;fontStyle=0;childLayout=stackLayout;horizontal=1;startSize=26;horizontalStack=0;resizeParent=1;resizeParentMax=0;resizeLast=0;collapsible=1;marginBottom=0;align=center;fontSize=14;" vertex="1" parent="1">
          <mxGeometry x="370" y="110" width="180" height="334" as="geometry">
            <mxRectangle x="470" y="590" width="70" height="30" as="alternateBounds" />
          </mxGeometry>
        </mxCell>
        <mxCell id="JkOmBQKzo-Y1mtd10rYn-77" value="id&lt;span style=&quot;white-space: pre;&quot;&gt;&#x9;&lt;/span&gt;" style="text;strokeColor=default;fillColor=none;spacingLeft=4;spacingRight=4;overflow=hidden;rotatable=0;points=[[0,0.5],[1,0.5]];portConstraint=eastwest;fontSize=12;whiteSpace=wrap;html=1;spacing=2;" vertex="1" parent="JkOmBQKzo-Y1mtd10rYn-76">
          <mxGeometry y="26" width="180" height="28" as="geometry" />
        </mxCell>
        <mxCell id="JkOmBQKzo-Y1mtd10rYn-78" value="sku" style="text;strokeColor=default;fillColor=none;spacingLeft=4;spacingRight=4;overflow=hidden;rotatable=0;points=[[0,0.5],[1,0.5]];portConstraint=eastwest;fontSize=12;whiteSpace=wrap;html=1;spacing=2;" vertex="1" parent="JkOmBQKzo-Y1mtd10rYn-76">
          <mxGeometry y="54" width="180" height="28" as="geometry" />
        </mxCell>
        <mxCell id="JkOmBQKzo-Y1mtd10rYn-79" value="slug" style="text;strokeColor=default;fillColor=none;spacingLeft=4;spacingRight=4;overflow=hidden;rotatable=0;points=[[0,0.5],[1,0.5]];portConstraint=eastwest;fontSize=12;whiteSpace=wrap;html=1;spacing=2;" vertex="1" parent="JkOmBQKzo-Y1mtd10rYn-76">
          <mxGeometry y="82" width="180" height="28" as="geometry" />
        </mxCell>
        <mxCell id="JkOmBQKzo-Y1mtd10rYn-81" value="artist_id" style="text;strokeColor=default;fillColor=none;spacingLeft=4;spacingRight=4;overflow=hidden;rotatable=0;points=[[0,0.5],[1,0.5]];portConstraint=eastwest;fontSize=12;whiteSpace=wrap;html=1;spacing=2;" vertex="1" parent="JkOmBQKzo-Y1mtd10rYn-76">
          <mxGeometry y="110" width="180" height="28" as="geometry" />
        </mxCell>
        <mxCell id="JkOmBQKzo-Y1mtd10rYn-82" value="category_id" style="text;strokeColor=default;fillColor=none;spacingLeft=4;spacingRight=4;overflow=hidden;rotatable=0;points=[[0,0.5],[1,0.5]];portConstraint=eastwest;fontSize=12;whiteSpace=wrap;html=1;spacing=2;" vertex="1" parent="JkOmBQKzo-Y1mtd10rYn-76">
          <mxGeometry y="138" width="180" height="28" as="geometry" />
        </mxCell>
        <mxCell id="JkOmBQKzo-Y1mtd10rYn-83" value="price" style="text;strokeColor=default;fillColor=none;spacingLeft=4;spacingRight=4;overflow=hidden;rotatable=0;points=[[0,0.5],[1,0.5]];portConstraint=eastwest;fontSize=12;whiteSpace=wrap;html=1;spacing=2;" vertex="1" parent="JkOmBQKzo-Y1mtd10rYn-76">
          <mxGeometry y="166" width="180" height="28" as="geometry" />
        </mxCell>
        <mxCell id="JkOmBQKzo-Y1mtd10rYn-87" value="material" style="text;strokeColor=default;fillColor=none;spacingLeft=4;spacingRight=4;overflow=hidden;rotatable=0;points=[[0,0.5],[1,0.5]];portConstraint=eastwest;fontSize=12;whiteSpace=wrap;html=1;spacing=2;" vertex="1" parent="JkOmBQKzo-Y1mtd10rYn-76">
          <mxGeometry y="194" width="180" height="28" as="geometry" />
        </mxCell>
        <mxCell id="JkOmBQKzo-Y1mtd10rYn-88" value="orientation" style="text;strokeColor=default;fillColor=none;spacingLeft=4;spacingRight=4;overflow=hidden;rotatable=0;points=[[0,0.5],[1,0.5]];portConstraint=eastwest;fontSize=12;whiteSpace=wrap;html=1;spacing=2;" vertex="1" parent="JkOmBQKzo-Y1mtd10rYn-76">
          <mxGeometry y="222" width="180" height="28" as="geometry" />
        </mxCell>
        <mxCell id="JkOmBQKzo-Y1mtd10rYn-89" value="is_featured" style="text;strokeColor=default;fillColor=none;spacingLeft=4;spacingRight=4;overflow=hidden;rotatable=0;points=[[0,0.5],[1,0.5]];portConstraint=eastwest;fontSize=12;whiteSpace=wrap;html=1;spacing=2;" vertex="1" parent="JkOmBQKzo-Y1mtd10rYn-76">
          <mxGeometry y="250" width="180" height="28" as="geometry" />
        </mxCell>
        <mxCell id="JkOmBQKzo-Y1mtd10rYn-90" value="dimensions" style="text;strokeColor=default;fillColor=none;spacingLeft=4;spacingRight=4;overflow=hidden;rotatable=0;points=[[0,0.5],[1,0.5]];portConstraint=eastwest;fontSize=12;whiteSpace=wrap;html=1;spacing=2;" vertex="1" parent="JkOmBQKzo-Y1mtd10rYn-76">
          <mxGeometry y="278" width="180" height="28" as="geometry" />
        </mxCell>
        <mxCell id="JkOmBQKzo-Y1mtd10rYn-91" value="weight" style="text;strokeColor=default;fillColor=none;spacingLeft=4;spacingRight=4;overflow=hidden;rotatable=0;points=[[0,0.5],[1,0.5]];portConstraint=eastwest;fontSize=12;whiteSpace=wrap;html=1;spacing=2;" vertex="1" parent="JkOmBQKzo-Y1mtd10rYn-76">
          <mxGeometry y="306" width="180" height="28" as="geometry" />
        </mxCell>
        <mxCell id="JkOmBQKzo-Y1mtd10rYn-92" style="edgeStyle=orthogonalEdgeStyle;rounded=0;orthogonalLoop=1;jettySize=auto;html=1;exitX=0;exitY=0.5;exitDx=0;exitDy=0;entryX=1;entryY=0.5;entryDx=0;entryDy=0;" edge="1" parent="1" source="JkOmBQKzo-Y1mtd10rYn-82" target="JkOmBQKzo-Y1mtd10rYn-56">
          <mxGeometry relative="1" as="geometry" />
        </mxCell>
        <mxCell id="JkOmBQKzo-Y1mtd10rYn-93" style="edgeStyle=orthogonalEdgeStyle;rounded=0;orthogonalLoop=1;jettySize=auto;html=1;exitX=1;exitY=0.5;exitDx=0;exitDy=0;entryX=0;entryY=0.5;entryDx=0;entryDy=0;" edge="1" parent="1" source="JkOmBQKzo-Y1mtd10rYn-81" target="JkOmBQKzo-Y1mtd10rYn-66">
          <mxGeometry relative="1" as="geometry" />
        </mxCell>
        <mxCell id="JkOmBQKzo-Y1mtd10rYn-94" value="ItemImage" style="swimlane;fontStyle=0;childLayout=stackLayout;horizontal=1;startSize=26;horizontalStack=0;resizeParent=1;resizeParentMax=0;resizeLast=0;collapsible=1;marginBottom=0;align=center;fontSize=14;" vertex="1" parent="1">
          <mxGeometry x="840" y="82" width="180" height="250" as="geometry">
            <mxRectangle x="470" y="590" width="70" height="30" as="alternateBounds" />
          </mxGeometry>
        </mxCell>
        <mxCell id="JkOmBQKzo-Y1mtd10rYn-95" value="id&lt;span style=&quot;white-space: pre;&quot;&gt;&#x9;&lt;/span&gt;" style="text;strokeColor=default;fillColor=none;spacingLeft=4;spacingRight=4;overflow=hidden;rotatable=0;points=[[0,0.5],[1,0.5]];portConstraint=eastwest;fontSize=12;whiteSpace=wrap;html=1;spacing=2;" vertex="1" parent="JkOmBQKzo-Y1mtd10rYn-94">
          <mxGeometry y="26" width="180" height="28" as="geometry" />
        </mxCell>
        <mxCell id="JkOmBQKzo-Y1mtd10rYn-96" value="item_id" style="text;strokeColor=default;fillColor=none;spacingLeft=4;spacingRight=4;overflow=hidden;rotatable=0;points=[[0,0.5],[1,0.5]];portConstraint=eastwest;fontSize=12;whiteSpace=wrap;html=1;spacing=2;" vertex="1" parent="JkOmBQKzo-Y1mtd10rYn-94">
          <mxGeometry y="54" width="180" height="28" as="geometry" />
        </mxCell>
        <mxCell id="JkOmBQKzo-Y1mtd10rYn-97" value="image_id" style="text;strokeColor=default;fillColor=none;spacingLeft=4;spacingRight=4;overflow=hidden;rotatable=0;points=[[0,0.5],[1,0.5]];portConstraint=eastwest;fontSize=12;whiteSpace=wrap;html=1;spacing=2;" vertex="1" parent="JkOmBQKzo-Y1mtd10rYn-94">
          <mxGeometry y="82" width="180" height="28" as="geometry" />
        </mxCell>
        <mxCell id="JkOmBQKzo-Y1mtd10rYn-98" value="alt_text" style="text;strokeColor=default;fillColor=none;spacingLeft=4;spacingRight=4;overflow=hidden;rotatable=0;points=[[0,0.5],[1,0.5]];portConstraint=eastwest;fontSize=12;whiteSpace=wrap;html=1;spacing=2;" vertex="1" parent="JkOmBQKzo-Y1mtd10rYn-94">
          <mxGeometry y="110" width="180" height="28" as="geometry" />
        </mxCell>
        <mxCell id="JkOmBQKzo-Y1mtd10rYn-99" value="position" style="text;strokeColor=default;fillColor=none;spacingLeft=4;spacingRight=4;overflow=hidden;rotatable=0;points=[[0,0.5],[1,0.5]];portConstraint=eastwest;fontSize=12;whiteSpace=wrap;html=1;spacing=2;" vertex="1" parent="JkOmBQKzo-Y1mtd10rYn-94">
          <mxGeometry y="138" width="180" height="28" as="geometry" />
        </mxCell>
        <mxCell id="JkOmBQKzo-Y1mtd10rYn-100" value="is_primary" style="text;strokeColor=default;fillColor=none;spacingLeft=4;spacingRight=4;overflow=hidden;rotatable=0;points=[[0,0.5],[1,0.5]];portConstraint=eastwest;fontSize=12;whiteSpace=wrap;html=1;spacing=2;" vertex="1" parent="JkOmBQKzo-Y1mtd10rYn-94">
          <mxGeometry y="166" width="180" height="28" as="geometry" />
        </mxCell>
        <mxCell id="JkOmBQKzo-Y1mtd10rYn-101" value="created_at" style="text;strokeColor=default;fillColor=none;spacingLeft=4;spacingRight=4;overflow=hidden;rotatable=0;points=[[0,0.5],[1,0.5]];portConstraint=eastwest;fontSize=12;whiteSpace=wrap;html=1;spacing=2;" vertex="1" parent="JkOmBQKzo-Y1mtd10rYn-94">
          <mxGeometry y="194" width="180" height="28" as="geometry" />
        </mxCell>
        <mxCell id="JkOmBQKzo-Y1mtd10rYn-102" value="updated_at" style="text;strokeColor=default;fillColor=none;spacingLeft=4;spacingRight=4;overflow=hidden;rotatable=0;points=[[0,0.5],[1,0.5]];portConstraint=eastwest;fontSize=12;whiteSpace=wrap;html=1;spacing=2;" vertex="1" parent="JkOmBQKzo-Y1mtd10rYn-94">
          <mxGeometry y="222" width="180" height="28" as="geometry" />
        </mxCell>
        <mxCell id="JkOmBQKzo-Y1mtd10rYn-103" style="edgeStyle=orthogonalEdgeStyle;rounded=0;orthogonalLoop=1;jettySize=auto;html=1;exitX=0;exitY=0.5;exitDx=0;exitDy=0;entryX=1;entryY=0.5;entryDx=0;entryDy=0;" edge="1" parent="1" source="JkOmBQKzo-Y1mtd10rYn-96" target="JkOmBQKzo-Y1mtd10rYn-77">
          <mxGeometry relative="1" as="geometry" />
        </mxCell>
        <mxCell id="JkOmBQKzo-Y1mtd10rYn-104" value="FilterGroup" style="swimlane;fontStyle=0;childLayout=stackLayout;horizontal=1;startSize=26;horizontalStack=0;resizeParent=1;resizeParentMax=0;resizeLast=0;collapsible=1;marginBottom=0;align=center;fontSize=14;" vertex="1" parent="1">
          <mxGeometry x="-150" y="-113" width="180" height="138" as="geometry">
            <mxRectangle x="470" y="590" width="70" height="30" as="alternateBounds" />
          </mxGeometry>
        </mxCell>
        <mxCell id="JkOmBQKzo-Y1mtd10rYn-105" value="id&lt;span style=&quot;white-space: pre;&quot;&gt;&#x9;&lt;/span&gt;" style="text;strokeColor=default;fillColor=none;spacingLeft=4;spacingRight=4;overflow=hidden;rotatable=0;points=[[0,0.5],[1,0.5]];portConstraint=eastwest;fontSize=12;whiteSpace=wrap;html=1;spacing=2;" vertex="1" parent="JkOmBQKzo-Y1mtd10rYn-104">
          <mxGeometry y="26" width="180" height="28" as="geometry" />
        </mxCell>
        <mxCell id="JkOmBQKzo-Y1mtd10rYn-106" value="code" style="text;strokeColor=default;fillColor=none;spacingLeft=4;spacingRight=4;overflow=hidden;rotatable=0;points=[[0,0.5],[1,0.5]];portConstraint=eastwest;fontSize=12;whiteSpace=wrap;html=1;spacing=2;" vertex="1" parent="JkOmBQKzo-Y1mtd10rYn-104">
          <mxGeometry y="54" width="180" height="28" as="geometry" />
        </mxCell>
        <mxCell id="JkOmBQKzo-Y1mtd10rYn-107" value="is_multi_select" style="text;strokeColor=default;fillColor=none;spacingLeft=4;spacingRight=4;overflow=hidden;rotatable=0;points=[[0,0.5],[1,0.5]];portConstraint=eastwest;fontSize=12;whiteSpace=wrap;html=1;spacing=2;" vertex="1" parent="JkOmBQKzo-Y1mtd10rYn-104">
          <mxGeometry y="82" width="180" height="28" as="geometry" />
        </mxCell>
        <mxCell id="JkOmBQKzo-Y1mtd10rYn-109" value="position" style="text;strokeColor=default;fillColor=none;spacingLeft=4;spacingRight=4;overflow=hidden;rotatable=0;points=[[0,0.5],[1,0.5]];portConstraint=eastwest;fontSize=12;whiteSpace=wrap;html=1;spacing=2;" vertex="1" parent="JkOmBQKzo-Y1mtd10rYn-104">
          <mxGeometry y="110" width="180" height="28" as="geometry" />
        </mxCell>
        <mxCell id="JkOmBQKzo-Y1mtd10rYn-114" value="FilterOption" style="swimlane;fontStyle=0;childLayout=stackLayout;horizontal=1;startSize=26;horizontalStack=0;resizeParent=1;resizeParentMax=0;resizeLast=0;collapsible=1;marginBottom=0;align=center;fontSize=14;" vertex="1" parent="1">
          <mxGeometry x="100" y="-140" width="180" height="138" as="geometry">
            <mxRectangle x="470" y="590" width="70" height="30" as="alternateBounds" />
          </mxGeometry>
        </mxCell>
        <mxCell id="JkOmBQKzo-Y1mtd10rYn-115" value="id&lt;span style=&quot;white-space: pre;&quot;&gt;&#x9;&lt;/span&gt;" style="text;strokeColor=default;fillColor=none;spacingLeft=4;spacingRight=4;overflow=hidden;rotatable=0;points=[[0,0.5],[1,0.5]];portConstraint=eastwest;fontSize=12;whiteSpace=wrap;html=1;spacing=2;" vertex="1" parent="JkOmBQKzo-Y1mtd10rYn-114">
          <mxGeometry y="26" width="180" height="28" as="geometry" />
        </mxCell>
        <mxCell id="JkOmBQKzo-Y1mtd10rYn-116" value="group_id" style="text;strokeColor=default;fillColor=none;spacingLeft=4;spacingRight=4;overflow=hidden;rotatable=0;points=[[0,0.5],[1,0.5]];portConstraint=eastwest;fontSize=12;whiteSpace=wrap;html=1;spacing=2;" vertex="1" parent="JkOmBQKzo-Y1mtd10rYn-114">
          <mxGeometry y="54" width="180" height="28" as="geometry" />
        </mxCell>
        <mxCell id="JkOmBQKzo-Y1mtd10rYn-117" value="code" style="text;strokeColor=default;fillColor=none;spacingLeft=4;spacingRight=4;overflow=hidden;rotatable=0;points=[[0,0.5],[1,0.5]];portConstraint=eastwest;fontSize=12;whiteSpace=wrap;html=1;spacing=2;" vertex="1" parent="JkOmBQKzo-Y1mtd10rYn-114">
          <mxGeometry y="82" width="180" height="28" as="geometry" />
        </mxCell>
        <mxCell id="JkOmBQKzo-Y1mtd10rYn-118" value="position" style="text;strokeColor=default;fillColor=none;spacingLeft=4;spacingRight=4;overflow=hidden;rotatable=0;points=[[0,0.5],[1,0.5]];portConstraint=eastwest;fontSize=12;whiteSpace=wrap;html=1;spacing=2;" vertex="1" parent="JkOmBQKzo-Y1mtd10rYn-114">
          <mxGeometry y="110" width="180" height="28" as="geometry" />
        </mxCell>
        <mxCell id="JkOmBQKzo-Y1mtd10rYn-119" style="edgeStyle=orthogonalEdgeStyle;rounded=0;orthogonalLoop=1;jettySize=auto;html=1;exitX=0;exitY=0.5;exitDx=0;exitDy=0;entryX=1;entryY=0.5;entryDx=0;entryDy=0;" edge="1" parent="1" source="JkOmBQKzo-Y1mtd10rYn-116" target="JkOmBQKzo-Y1mtd10rYn-105">
          <mxGeometry relative="1" as="geometry" />
        </mxCell>
        <mxCell id="JkOmBQKzo-Y1mtd10rYn-120" value="ItemFilterOption" style="swimlane;fontStyle=0;childLayout=stackLayout;horizontal=1;startSize=26;horizontalStack=0;resizeParent=1;resizeParentMax=0;resizeLast=0;collapsible=1;marginBottom=0;align=center;fontSize=14;" vertex="1" parent="1">
          <mxGeometry x="100" y="25" width="180" height="138" as="geometry">
            <mxRectangle x="470" y="590" width="70" height="30" as="alternateBounds" />
          </mxGeometry>
        </mxCell>
        <mxCell id="JkOmBQKzo-Y1mtd10rYn-121" value="id&lt;span style=&quot;white-space: pre;&quot;&gt;&#x9;&lt;/span&gt;" style="text;strokeColor=default;fillColor=none;spacingLeft=4;spacingRight=4;overflow=hidden;rotatable=0;points=[[0,0.5],[1,0.5]];portConstraint=eastwest;fontSize=12;whiteSpace=wrap;html=1;spacing=2;" vertex="1" parent="JkOmBQKzo-Y1mtd10rYn-120">
          <mxGeometry y="26" width="180" height="28" as="geometry" />
        </mxCell>
        <mxCell id="JkOmBQKzo-Y1mtd10rYn-122" value="item_id" style="text;strokeColor=default;fillColor=none;spacingLeft=4;spacingRight=4;overflow=hidden;rotatable=0;points=[[0,0.5],[1,0.5]];portConstraint=eastwest;fontSize=12;whiteSpace=wrap;html=1;spacing=2;" vertex="1" parent="JkOmBQKzo-Y1mtd10rYn-120">
          <mxGeometry y="54" width="180" height="28" as="geometry" />
        </mxCell>
        <mxCell id="JkOmBQKzo-Y1mtd10rYn-123" value="option_id" style="text;strokeColor=default;fillColor=none;spacingLeft=4;spacingRight=4;overflow=hidden;rotatable=0;points=[[0,0.5],[1,0.5]];portConstraint=eastwest;fontSize=12;whiteSpace=wrap;html=1;spacing=2;" vertex="1" parent="JkOmBQKzo-Y1mtd10rYn-120">
          <mxGeometry y="82" width="180" height="28" as="geometry" />
        </mxCell>
        <mxCell id="JkOmBQKzo-Y1mtd10rYn-124" value="position" style="text;strokeColor=default;fillColor=none;spacingLeft=4;spacingRight=4;overflow=hidden;rotatable=0;points=[[0,0.5],[1,0.5]];portConstraint=eastwest;fontSize=12;whiteSpace=wrap;html=1;spacing=2;" vertex="1" parent="JkOmBQKzo-Y1mtd10rYn-120">
          <mxGeometry y="110" width="180" height="28" as="geometry" />
        </mxCell>
        <mxCell id="JkOmBQKzo-Y1mtd10rYn-125" style="edgeStyle=orthogonalEdgeStyle;rounded=0;orthogonalLoop=1;jettySize=auto;html=1;exitX=0;exitY=0.5;exitDx=0;exitDy=0;entryX=0;entryY=0.5;entryDx=0;entryDy=0;" edge="1" parent="1" source="JkOmBQKzo-Y1mtd10rYn-123" target="JkOmBQKzo-Y1mtd10rYn-115">
          <mxGeometry relative="1" as="geometry" />
        </mxCell>
        <mxCell id="JkOmBQKzo-Y1mtd10rYn-126" style="edgeStyle=orthogonalEdgeStyle;rounded=0;orthogonalLoop=1;jettySize=auto;html=1;exitX=1;exitY=0.5;exitDx=0;exitDy=0;entryX=0;entryY=0.5;entryDx=0;entryDy=0;" edge="1" parent="1" source="JkOmBQKzo-Y1mtd10rYn-122" target="JkOmBQKzo-Y1mtd10rYn-77">
          <mxGeometry relative="1" as="geometry" />
        </mxCell>
        <mxCell id="JkOmBQKzo-Y1mtd10rYn-127" value="Wishlist" style="swimlane;fontStyle=0;childLayout=stackLayout;horizontal=1;startSize=26;horizontalStack=0;resizeParent=1;resizeParentMax=0;resizeLast=0;collapsible=1;marginBottom=0;align=center;fontSize=14;" vertex="1" parent="1">
          <mxGeometry x="370" y="984" width="180" height="110" as="geometry">
            <mxRectangle x="470" y="590" width="70" height="30" as="alternateBounds" />
          </mxGeometry>
        </mxCell>
        <mxCell id="JkOmBQKzo-Y1mtd10rYn-128" value="id&lt;span style=&quot;white-space: pre;&quot;&gt;&#x9;&lt;/span&gt;" style="text;strokeColor=default;fillColor=none;spacingLeft=4;spacingRight=4;overflow=hidden;rotatable=0;points=[[0,0.5],[1,0.5]];portConstraint=eastwest;fontSize=12;whiteSpace=wrap;html=1;spacing=2;" vertex="1" parent="JkOmBQKzo-Y1mtd10rYn-127">
          <mxGeometry y="26" width="180" height="28" as="geometry" />
        </mxCell>
        <mxCell id="JkOmBQKzo-Y1mtd10rYn-129" value="user_id" style="text;strokeColor=default;fillColor=none;spacingLeft=4;spacingRight=4;overflow=hidden;rotatable=0;points=[[0,0.5],[1,0.5]];portConstraint=eastwest;fontSize=12;whiteSpace=wrap;html=1;spacing=2;" vertex="1" parent="JkOmBQKzo-Y1mtd10rYn-127">
          <mxGeometry y="54" width="180" height="28" as="geometry" />
        </mxCell>
        <mxCell id="JkOmBQKzo-Y1mtd10rYn-130" value="name" style="text;strokeColor=default;fillColor=none;spacingLeft=4;spacingRight=4;overflow=hidden;rotatable=0;points=[[0,0.5],[1,0.5]];portConstraint=eastwest;fontSize=12;whiteSpace=wrap;html=1;spacing=2;" vertex="1" parent="JkOmBQKzo-Y1mtd10rYn-127">
          <mxGeometry y="82" width="180" height="28" as="geometry" />
        </mxCell>
        <mxCell id="JkOmBQKzo-Y1mtd10rYn-138" value="WishlistItem" style="swimlane;fontStyle=0;childLayout=stackLayout;horizontal=1;startSize=26;horizontalStack=0;resizeParent=1;resizeParentMax=0;resizeLast=0;collapsible=1;marginBottom=0;align=center;fontSize=14;" vertex="1" parent="1">
          <mxGeometry x="370" y="1104" width="180" height="110" as="geometry">
            <mxRectangle x="470" y="590" width="70" height="30" as="alternateBounds" />
          </mxGeometry>
        </mxCell>
        <mxCell id="JkOmBQKzo-Y1mtd10rYn-139" value="id&lt;span style=&quot;white-space: pre;&quot;&gt;&#x9;&lt;/span&gt;" style="text;strokeColor=default;fillColor=none;spacingLeft=4;spacingRight=4;overflow=hidden;rotatable=0;points=[[0,0.5],[1,0.5]];portConstraint=eastwest;fontSize=12;whiteSpace=wrap;html=1;spacing=2;" vertex="1" parent="JkOmBQKzo-Y1mtd10rYn-138">
          <mxGeometry y="26" width="180" height="28" as="geometry" />
        </mxCell>
        <mxCell id="JkOmBQKzo-Y1mtd10rYn-140" value="wishlist_id" style="text;strokeColor=default;fillColor=none;spacingLeft=4;spacingRight=4;overflow=hidden;rotatable=0;points=[[0,0.5],[1,0.5]];portConstraint=eastwest;fontSize=12;whiteSpace=wrap;html=1;spacing=2;" vertex="1" parent="JkOmBQKzo-Y1mtd10rYn-138">
          <mxGeometry y="54" width="180" height="28" as="geometry" />
        </mxCell>
        <mxCell id="JkOmBQKzo-Y1mtd10rYn-141" value="item_id" style="text;strokeColor=default;fillColor=none;spacingLeft=4;spacingRight=4;overflow=hidden;rotatable=0;points=[[0,0.5],[1,0.5]];portConstraint=eastwest;fontSize=12;whiteSpace=wrap;html=1;spacing=2;" vertex="1" parent="JkOmBQKzo-Y1mtd10rYn-138">
          <mxGeometry y="82" width="180" height="28" as="geometry" />
        </mxCell>
        <mxCell id="JkOmBQKzo-Y1mtd10rYn-145" style="edgeStyle=orthogonalEdgeStyle;rounded=0;orthogonalLoop=1;jettySize=auto;html=1;exitX=0;exitY=0.5;exitDx=0;exitDy=0;entryX=0;entryY=0.5;entryDx=0;entryDy=0;" edge="1" parent="1" source="JkOmBQKzo-Y1mtd10rYn-140" target="JkOmBQKzo-Y1mtd10rYn-128">
          <mxGeometry relative="1" as="geometry" />
        </mxCell>
        <mxCell id="JkOmBQKzo-Y1mtd10rYn-146" style="edgeStyle=orthogonalEdgeStyle;rounded=0;orthogonalLoop=1;jettySize=auto;html=1;exitX=0;exitY=0.5;exitDx=0;exitDy=0;entryX=0;entryY=0.5;entryDx=0;entryDy=0;" edge="1" parent="1" source="JkOmBQKzo-Y1mtd10rYn-129" target="PifKSuSJS3Elm9ButAE0-15">
          <mxGeometry relative="1" as="geometry" />
        </mxCell>
        <mxCell id="JkOmBQKzo-Y1mtd10rYn-147" style="edgeStyle=orthogonalEdgeStyle;rounded=0;orthogonalLoop=1;jettySize=auto;html=1;exitX=1;exitY=0.5;exitDx=0;exitDy=0;entryX=1;entryY=0.5;entryDx=0;entryDy=0;" edge="1" parent="1" source="JkOmBQKzo-Y1mtd10rYn-141" target="JkOmBQKzo-Y1mtd10rYn-77">
          <mxGeometry relative="1" as="geometry" />
        </mxCell>
        <mxCell id="JkOmBQKzo-Y1mtd10rYn-148" value="Cart" style="swimlane;fontStyle=0;childLayout=stackLayout;horizontal=1;startSize=26;horizontalStack=0;resizeParent=1;resizeParentMax=0;resizeLast=0;collapsible=1;marginBottom=0;align=center;fontSize=14;" vertex="1" parent="1">
          <mxGeometry x="370" y="1274" width="180" height="110" as="geometry">
            <mxRectangle x="470" y="590" width="70" height="30" as="alternateBounds" />
          </mxGeometry>
        </mxCell>
        <mxCell id="JkOmBQKzo-Y1mtd10rYn-149" value="id&lt;span style=&quot;white-space: pre;&quot;&gt;&#x9;&lt;/span&gt;" style="text;strokeColor=default;fillColor=none;spacingLeft=4;spacingRight=4;overflow=hidden;rotatable=0;points=[[0,0.5],[1,0.5]];portConstraint=eastwest;fontSize=12;whiteSpace=wrap;html=1;spacing=2;" vertex="1" parent="JkOmBQKzo-Y1mtd10rYn-148">
          <mxGeometry y="26" width="180" height="28" as="geometry" />
        </mxCell>
        <mxCell id="JkOmBQKzo-Y1mtd10rYn-150" value="user_id" style="text;strokeColor=default;fillColor=none;spacingLeft=4;spacingRight=4;overflow=hidden;rotatable=0;points=[[0,0.5],[1,0.5]];portConstraint=eastwest;fontSize=12;whiteSpace=wrap;html=1;spacing=2;" vertex="1" parent="JkOmBQKzo-Y1mtd10rYn-148">
          <mxGeometry y="54" width="180" height="28" as="geometry" />
        </mxCell>
        <mxCell id="JkOmBQKzo-Y1mtd10rYn-151" value="session_key" style="text;strokeColor=default;fillColor=none;spacingLeft=4;spacingRight=4;overflow=hidden;rotatable=0;points=[[0,0.5],[1,0.5]];portConstraint=eastwest;fontSize=12;whiteSpace=wrap;html=1;spacing=2;" vertex="1" parent="JkOmBQKzo-Y1mtd10rYn-148">
          <mxGeometry y="82" width="180" height="28" as="geometry" />
        </mxCell>
        <mxCell id="JkOmBQKzo-Y1mtd10rYn-152" value="CartItem" style="swimlane;fontStyle=0;childLayout=stackLayout;horizontal=1;startSize=26;horizontalStack=0;resizeParent=1;resizeParentMax=0;resizeLast=0;collapsible=1;marginBottom=0;align=center;fontSize=14;" vertex="1" parent="1">
          <mxGeometry x="370" y="1404" width="180" height="166" as="geometry">
            <mxRectangle x="470" y="590" width="70" height="30" as="alternateBounds" />
          </mxGeometry>
        </mxCell>
        <mxCell id="JkOmBQKzo-Y1mtd10rYn-153" value="id&lt;span style=&quot;white-space: pre;&quot;&gt;&#x9;&lt;/span&gt;" style="text;strokeColor=default;fillColor=none;spacingLeft=4;spacingRight=4;overflow=hidden;rotatable=0;points=[[0,0.5],[1,0.5]];portConstraint=eastwest;fontSize=12;whiteSpace=wrap;html=1;spacing=2;" vertex="1" parent="JkOmBQKzo-Y1mtd10rYn-152">
          <mxGeometry y="26" width="180" height="28" as="geometry" />
        </mxCell>
        <mxCell id="JkOmBQKzo-Y1mtd10rYn-154" value="cart_id" style="text;strokeColor=default;fillColor=none;spacingLeft=4;spacingRight=4;overflow=hidden;rotatable=0;points=[[0,0.5],[1,0.5]];portConstraint=eastwest;fontSize=12;whiteSpace=wrap;html=1;spacing=2;" vertex="1" parent="JkOmBQKzo-Y1mtd10rYn-152">
          <mxGeometry y="54" width="180" height="28" as="geometry" />
        </mxCell>
        <mxCell id="JkOmBQKzo-Y1mtd10rYn-155" value="item_id" style="text;strokeColor=default;fillColor=none;spacingLeft=4;spacingRight=4;overflow=hidden;rotatable=0;points=[[0,0.5],[1,0.5]];portConstraint=eastwest;fontSize=12;whiteSpace=wrap;html=1;spacing=2;" vertex="1" parent="JkOmBQKzo-Y1mtd10rYn-152">
          <mxGeometry y="82" width="180" height="28" as="geometry" />
        </mxCell>
        <mxCell id="JkOmBQKzo-Y1mtd10rYn-156" value="quantity" style="text;strokeColor=default;fillColor=none;spacingLeft=4;spacingRight=4;overflow=hidden;rotatable=0;points=[[0,0.5],[1,0.5]];portConstraint=eastwest;fontSize=12;whiteSpace=wrap;html=1;spacing=2;" vertex="1" parent="JkOmBQKzo-Y1mtd10rYn-152">
          <mxGeometry y="110" width="180" height="28" as="geometry" />
        </mxCell>
        <mxCell id="JkOmBQKzo-Y1mtd10rYn-157" value="unit_price" style="text;strokeColor=default;fillColor=none;spacingLeft=4;spacingRight=4;overflow=hidden;rotatable=0;points=[[0,0.5],[1,0.5]];portConstraint=eastwest;fontSize=12;whiteSpace=wrap;html=1;spacing=2;" vertex="1" parent="JkOmBQKzo-Y1mtd10rYn-152">
          <mxGeometry y="138" width="180" height="28" as="geometry" />
        </mxCell>
        <mxCell id="JkOmBQKzo-Y1mtd10rYn-158" style="edgeStyle=orthogonalEdgeStyle;rounded=0;orthogonalLoop=1;jettySize=auto;html=1;exitX=0;exitY=0.5;exitDx=0;exitDy=0;entryX=0;entryY=0.5;entryDx=0;entryDy=0;" edge="1" parent="1" source="JkOmBQKzo-Y1mtd10rYn-154" target="JkOmBQKzo-Y1mtd10rYn-149">
          <mxGeometry relative="1" as="geometry" />
        </mxCell>
        <mxCell id="JkOmBQKzo-Y1mtd10rYn-159" style="edgeStyle=orthogonalEdgeStyle;rounded=0;orthogonalLoop=1;jettySize=auto;html=1;exitX=0;exitY=0.5;exitDx=0;exitDy=0;entryX=0;entryY=0.5;entryDx=0;entryDy=0;" edge="1" parent="1" source="JkOmBQKzo-Y1mtd10rYn-150" target="PifKSuSJS3Elm9ButAE0-15">
          <mxGeometry relative="1" as="geometry" />
        </mxCell>
        <mxCell id="JkOmBQKzo-Y1mtd10rYn-160" style="edgeStyle=orthogonalEdgeStyle;rounded=0;orthogonalLoop=1;jettySize=auto;html=1;exitX=1;exitY=0.5;exitDx=0;exitDy=0;entryX=1;entryY=0.5;entryDx=0;entryDy=0;" edge="1" parent="1" source="JkOmBQKzo-Y1mtd10rYn-155" target="JkOmBQKzo-Y1mtd10rYn-77">
          <mxGeometry relative="1" as="geometry" />
        </mxCell>
        <mxCell id="JkOmBQKzo-Y1mtd10rYn-161" value="Address" style="swimlane;fontStyle=0;childLayout=stackLayout;horizontal=1;startSize=26;horizontalStack=0;resizeParent=1;resizeParentMax=0;resizeLast=0;collapsible=1;marginBottom=0;align=center;fontSize=14;" vertex="1" parent="1">
          <mxGeometry x="870" y="460" width="180" height="362" as="geometry">
            <mxRectangle x="470" y="590" width="70" height="30" as="alternateBounds" />
          </mxGeometry>
        </mxCell>
        <mxCell id="JkOmBQKzo-Y1mtd10rYn-162" value="id&lt;span style=&quot;white-space: pre;&quot;&gt;&#x9;&lt;/span&gt;" style="text;strokeColor=default;fillColor=none;spacingLeft=4;spacingRight=4;overflow=hidden;rotatable=0;points=[[0,0.5],[1,0.5]];portConstraint=eastwest;fontSize=12;whiteSpace=wrap;html=1;spacing=2;" vertex="1" parent="JkOmBQKzo-Y1mtd10rYn-161">
          <mxGeometry y="26" width="180" height="28" as="geometry" />
        </mxCell>
        <mxCell id="JkOmBQKzo-Y1mtd10rYn-163" value="user_id" style="text;strokeColor=default;fillColor=none;spacingLeft=4;spacingRight=4;overflow=hidden;rotatable=0;points=[[0,0.5],[1,0.5]];portConstraint=eastwest;fontSize=12;whiteSpace=wrap;html=1;spacing=2;" vertex="1" parent="JkOmBQKzo-Y1mtd10rYn-161">
          <mxGeometry y="54" width="180" height="28" as="geometry" />
        </mxCell>
        <mxCell id="JkOmBQKzo-Y1mtd10rYn-164" value="label" style="text;strokeColor=default;fillColor=none;spacingLeft=4;spacingRight=4;overflow=hidden;rotatable=0;points=[[0,0.5],[1,0.5]];portConstraint=eastwest;fontSize=12;whiteSpace=wrap;html=1;spacing=2;" vertex="1" parent="JkOmBQKzo-Y1mtd10rYn-161">
          <mxGeometry y="82" width="180" height="28" as="geometry" />
        </mxCell>
        <mxCell id="JkOmBQKzo-Y1mtd10rYn-165" value="full_name" style="text;strokeColor=default;fillColor=none;spacingLeft=4;spacingRight=4;overflow=hidden;rotatable=0;points=[[0,0.5],[1,0.5]];portConstraint=eastwest;fontSize=12;whiteSpace=wrap;html=1;spacing=2;" vertex="1" parent="JkOmBQKzo-Y1mtd10rYn-161">
          <mxGeometry y="110" width="180" height="28" as="geometry" />
        </mxCell>
        <mxCell id="JkOmBQKzo-Y1mtd10rYn-166" value="phone" style="text;strokeColor=default;fillColor=none;spacingLeft=4;spacingRight=4;overflow=hidden;rotatable=0;points=[[0,0.5],[1,0.5]];portConstraint=eastwest;fontSize=12;whiteSpace=wrap;html=1;spacing=2;" vertex="1" parent="JkOmBQKzo-Y1mtd10rYn-161">
          <mxGeometry y="138" width="180" height="28" as="geometry" />
        </mxCell>
        <mxCell id="JkOmBQKzo-Y1mtd10rYn-167" value="line_1" style="text;strokeColor=default;fillColor=none;spacingLeft=4;spacingRight=4;overflow=hidden;rotatable=0;points=[[0,0.5],[1,0.5]];portConstraint=eastwest;fontSize=12;whiteSpace=wrap;html=1;spacing=2;" vertex="1" parent="JkOmBQKzo-Y1mtd10rYn-161">
          <mxGeometry y="166" width="180" height="28" as="geometry" />
        </mxCell>
        <mxCell id="JkOmBQKzo-Y1mtd10rYn-168" value="line_2" style="text;strokeColor=default;fillColor=none;spacingLeft=4;spacingRight=4;overflow=hidden;rotatable=0;points=[[0,0.5],[1,0.5]];portConstraint=eastwest;fontSize=12;whiteSpace=wrap;html=1;spacing=2;" vertex="1" parent="JkOmBQKzo-Y1mtd10rYn-161">
          <mxGeometry y="194" width="180" height="28" as="geometry" />
        </mxCell>
        <mxCell id="JkOmBQKzo-Y1mtd10rYn-169" value="city" style="text;strokeColor=default;fillColor=none;spacingLeft=4;spacingRight=4;overflow=hidden;rotatable=0;points=[[0,0.5],[1,0.5]];portConstraint=eastwest;fontSize=12;whiteSpace=wrap;html=1;spacing=2;" vertex="1" parent="JkOmBQKzo-Y1mtd10rYn-161">
          <mxGeometry y="222" width="180" height="28" as="geometry" />
        </mxCell>
        <mxCell id="JkOmBQKzo-Y1mtd10rYn-170" value="state" style="text;strokeColor=default;fillColor=none;spacingLeft=4;spacingRight=4;overflow=hidden;rotatable=0;points=[[0,0.5],[1,0.5]];portConstraint=eastwest;fontSize=12;whiteSpace=wrap;html=1;spacing=2;" vertex="1" parent="JkOmBQKzo-Y1mtd10rYn-161">
          <mxGeometry y="250" width="180" height="28" as="geometry" />
        </mxCell>
        <mxCell id="JkOmBQKzo-Y1mtd10rYn-171" value="postal_code" style="text;strokeColor=default;fillColor=none;spacingLeft=4;spacingRight=4;overflow=hidden;rotatable=0;points=[[0,0.5],[1,0.5]];portConstraint=eastwest;fontSize=12;whiteSpace=wrap;html=1;spacing=2;" vertex="1" parent="JkOmBQKzo-Y1mtd10rYn-161">
          <mxGeometry y="278" width="180" height="28" as="geometry" />
        </mxCell>
        <mxCell id="JkOmBQKzo-Y1mtd10rYn-172" value="country" style="text;strokeColor=default;fillColor=none;spacingLeft=4;spacingRight=4;overflow=hidden;rotatable=0;points=[[0,0.5],[1,0.5]];portConstraint=eastwest;fontSize=12;whiteSpace=wrap;html=1;spacing=2;" vertex="1" parent="JkOmBQKzo-Y1mtd10rYn-161">
          <mxGeometry y="306" width="180" height="28" as="geometry" />
        </mxCell>
        <mxCell id="JkOmBQKzo-Y1mtd10rYn-173" value="is_default" style="text;strokeColor=default;fillColor=none;spacingLeft=4;spacingRight=4;overflow=hidden;rotatable=0;points=[[0,0.5],[1,0.5]];portConstraint=eastwest;fontSize=12;whiteSpace=wrap;html=1;spacing=2;" vertex="1" parent="JkOmBQKzo-Y1mtd10rYn-161">
          <mxGeometry y="334" width="180" height="28" as="geometry" />
        </mxCell>
        <mxCell id="JkOmBQKzo-Y1mtd10rYn-174" style="edgeStyle=orthogonalEdgeStyle;rounded=0;orthogonalLoop=1;jettySize=auto;html=1;exitX=0;exitY=0.5;exitDx=0;exitDy=0;entryX=1;entryY=0.5;entryDx=0;entryDy=0;" edge="1" parent="1" source="JkOmBQKzo-Y1mtd10rYn-162" target="PifKSuSJS3Elm9ButAE0-15">
          <mxGeometry relative="1" as="geometry">
            <Array as="points">
              <mxPoint x="610" y="500" />
              <mxPoint x="610" y="600" />
            </Array>
          </mxGeometry>
        </mxCell>
        <mxCell id="JkOmBQKzo-Y1mtd10rYn-175" value="Order" style="swimlane;fontStyle=0;childLayout=stackLayout;horizontal=1;startSize=26;horizontalStack=0;resizeParent=1;resizeParentMax=0;resizeLast=0;collapsible=1;marginBottom=0;align=center;fontSize=14;" vertex="1" parent="1">
          <mxGeometry x="642" y="1274" width="180" height="390" as="geometry">
            <mxRectangle x="470" y="590" width="70" height="30" as="alternateBounds" />
          </mxGeometry>
        </mxCell>
        <mxCell id="JkOmBQKzo-Y1mtd10rYn-176" value="id&lt;span style=&quot;white-space: pre;&quot;&gt;&#x9;&lt;/span&gt;" style="text;strokeColor=default;fillColor=none;spacingLeft=4;spacingRight=4;overflow=hidden;rotatable=0;points=[[0,0.5],[1,0.5]];portConstraint=eastwest;fontSize=12;whiteSpace=wrap;html=1;spacing=2;" vertex="1" parent="JkOmBQKzo-Y1mtd10rYn-175">
          <mxGeometry y="26" width="180" height="28" as="geometry" />
        </mxCell>
        <mxCell id="JkOmBQKzo-Y1mtd10rYn-177" value="user_id" style="text;strokeColor=default;fillColor=none;spacingLeft=4;spacingRight=4;overflow=hidden;rotatable=0;points=[[0,0.5],[1,0.5]];portConstraint=eastwest;fontSize=12;whiteSpace=wrap;html=1;spacing=2;" vertex="1" parent="JkOmBQKzo-Y1mtd10rYn-175">
          <mxGeometry y="54" width="180" height="28" as="geometry" />
        </mxCell>
        <mxCell id="JkOmBQKzo-Y1mtd10rYn-178" value="order_number" style="text;strokeColor=default;fillColor=none;spacingLeft=4;spacingRight=4;overflow=hidden;rotatable=0;points=[[0,0.5],[1,0.5]];portConstraint=eastwest;fontSize=12;whiteSpace=wrap;html=1;spacing=2;" vertex="1" parent="JkOmBQKzo-Y1mtd10rYn-175">
          <mxGeometry y="82" width="180" height="28" as="geometry" />
        </mxCell>
        <mxCell id="JkOmBQKzo-Y1mtd10rYn-179" value="status" style="text;strokeColor=default;fillColor=none;spacingLeft=4;spacingRight=4;overflow=hidden;rotatable=0;points=[[0,0.5],[1,0.5]];portConstraint=eastwest;fontSize=12;whiteSpace=wrap;html=1;spacing=2;" vertex="1" parent="JkOmBQKzo-Y1mtd10rYn-175">
          <mxGeometry y="110" width="180" height="28" as="geometry" />
        </mxCell>
        <mxCell id="JkOmBQKzo-Y1mtd10rYn-180" value="subtotal" style="text;strokeColor=default;fillColor=none;spacingLeft=4;spacingRight=4;overflow=hidden;rotatable=0;points=[[0,0.5],[1,0.5]];portConstraint=eastwest;fontSize=12;whiteSpace=wrap;html=1;spacing=2;" vertex="1" parent="JkOmBQKzo-Y1mtd10rYn-175">
          <mxGeometry y="138" width="180" height="28" as="geometry" />
        </mxCell>
        <mxCell id="JkOmBQKzo-Y1mtd10rYn-181" value="discounts" style="text;strokeColor=default;fillColor=none;spacingLeft=4;spacingRight=4;overflow=hidden;rotatable=0;points=[[0,0.5],[1,0.5]];portConstraint=eastwest;fontSize=12;whiteSpace=wrap;html=1;spacing=2;" vertex="1" parent="JkOmBQKzo-Y1mtd10rYn-175">
          <mxGeometry y="166" width="180" height="28" as="geometry" />
        </mxCell>
        <mxCell id="JkOmBQKzo-Y1mtd10rYn-182" value="delivery_charges" style="text;strokeColor=default;fillColor=none;spacingLeft=4;spacingRight=4;overflow=hidden;rotatable=0;points=[[0,0.5],[1,0.5]];portConstraint=eastwest;fontSize=12;whiteSpace=wrap;html=1;spacing=2;" vertex="1" parent="JkOmBQKzo-Y1mtd10rYn-175">
          <mxGeometry y="194" width="180" height="28" as="geometry" />
        </mxCell>
        <mxCell id="JkOmBQKzo-Y1mtd10rYn-183" value="taxes" style="text;strokeColor=default;fillColor=none;spacingLeft=4;spacingRight=4;overflow=hidden;rotatable=0;points=[[0,0.5],[1,0.5]];portConstraint=eastwest;fontSize=12;whiteSpace=wrap;html=1;spacing=2;" vertex="1" parent="JkOmBQKzo-Y1mtd10rYn-175">
          <mxGeometry y="222" width="180" height="28" as="geometry" />
        </mxCell>
        <mxCell id="JkOmBQKzo-Y1mtd10rYn-184" value="total" style="text;strokeColor=default;fillColor=none;spacingLeft=4;spacingRight=4;overflow=hidden;rotatable=0;points=[[0,0.5],[1,0.5]];portConstraint=eastwest;fontSize=12;whiteSpace=wrap;html=1;spacing=2;" vertex="1" parent="JkOmBQKzo-Y1mtd10rYn-175">
          <mxGeometry y="250" width="180" height="28" as="geometry" />
        </mxCell>
        <mxCell id="JkOmBQKzo-Y1mtd10rYn-185" value="shipping_address_id" style="text;strokeColor=default;fillColor=none;spacingLeft=4;spacingRight=4;overflow=hidden;rotatable=0;points=[[0,0.5],[1,0.5]];portConstraint=eastwest;fontSize=12;whiteSpace=wrap;html=1;spacing=2;" vertex="1" parent="JkOmBQKzo-Y1mtd10rYn-175">
          <mxGeometry y="278" width="180" height="28" as="geometry" />
        </mxCell>
        <mxCell id="JkOmBQKzo-Y1mtd10rYn-186" value="billing_address_id" style="text;strokeColor=default;fillColor=none;spacingLeft=4;spacingRight=4;overflow=hidden;rotatable=0;points=[[0,0.5],[1,0.5]];portConstraint=eastwest;fontSize=12;whiteSpace=wrap;html=1;spacing=2;" vertex="1" parent="JkOmBQKzo-Y1mtd10rYn-175">
          <mxGeometry y="306" width="180" height="28" as="geometry" />
        </mxCell>
        <mxCell id="JkOmBQKzo-Y1mtd10rYn-187" value="shipping_tracking_id" style="text;strokeColor=default;fillColor=none;spacingLeft=4;spacingRight=4;overflow=hidden;rotatable=0;points=[[0,0.5],[1,0.5]];portConstraint=eastwest;fontSize=12;whiteSpace=wrap;html=1;spacing=2;" vertex="1" parent="JkOmBQKzo-Y1mtd10rYn-175">
          <mxGeometry y="334" width="180" height="28" as="geometry" />
        </mxCell>
        <mxCell id="JkOmBQKzo-Y1mtd10rYn-188" value="shipping_provider" style="text;strokeColor=default;fillColor=none;spacingLeft=4;spacingRight=4;overflow=hidden;rotatable=0;points=[[0,0.5],[1,0.5]];portConstraint=eastwest;fontSize=12;whiteSpace=wrap;html=1;spacing=2;" vertex="1" parent="JkOmBQKzo-Y1mtd10rYn-175">
          <mxGeometry y="362" width="180" height="28" as="geometry" />
        </mxCell>
        <mxCell id="JkOmBQKzo-Y1mtd10rYn-189" value="OrderItem" style="swimlane;fontStyle=0;childLayout=stackLayout;horizontal=1;startSize=26;horizontalStack=0;resizeParent=1;resizeParentMax=0;resizeLast=0;collapsible=1;marginBottom=0;align=center;fontSize=14;" vertex="1" parent="1">
          <mxGeometry x="642" y="1700" width="180" height="250" as="geometry">
            <mxRectangle x="470" y="590" width="70" height="30" as="alternateBounds" />
          </mxGeometry>
        </mxCell>
        <mxCell id="JkOmBQKzo-Y1mtd10rYn-190" value="id&lt;span style=&quot;white-space: pre;&quot;&gt;&#x9;&lt;/span&gt;" style="text;strokeColor=default;fillColor=none;spacingLeft=4;spacingRight=4;overflow=hidden;rotatable=0;points=[[0,0.5],[1,0.5]];portConstraint=eastwest;fontSize=12;whiteSpace=wrap;html=1;spacing=2;" vertex="1" parent="JkOmBQKzo-Y1mtd10rYn-189">
          <mxGeometry y="26" width="180" height="28" as="geometry" />
        </mxCell>
        <mxCell id="JkOmBQKzo-Y1mtd10rYn-191" value="item_id" style="text;strokeColor=default;fillColor=none;spacingLeft=4;spacingRight=4;overflow=hidden;rotatable=0;points=[[0,0.5],[1,0.5]];portConstraint=eastwest;fontSize=12;whiteSpace=wrap;html=1;spacing=2;" vertex="1" parent="JkOmBQKzo-Y1mtd10rYn-189">
          <mxGeometry y="54" width="180" height="28" as="geometry" />
        </mxCell>
        <mxCell id="JkOmBQKzo-Y1mtd10rYn-192" value="order_id" style="text;strokeColor=default;fillColor=none;spacingLeft=4;spacingRight=4;overflow=hidden;rotatable=0;points=[[0,0.5],[1,0.5]];portConstraint=eastwest;fontSize=12;whiteSpace=wrap;html=1;spacing=2;" vertex="1" parent="JkOmBQKzo-Y1mtd10rYn-189">
          <mxGeometry y="82" width="180" height="28" as="geometry" />
        </mxCell>
        <mxCell id="JkOmBQKzo-Y1mtd10rYn-193" value="title_snapshot" style="text;strokeColor=default;fillColor=none;spacingLeft=4;spacingRight=4;overflow=hidden;rotatable=0;points=[[0,0.5],[1,0.5]];portConstraint=eastwest;fontSize=12;whiteSpace=wrap;html=1;spacing=2;" vertex="1" parent="JkOmBQKzo-Y1mtd10rYn-189">
          <mxGeometry y="110" width="180" height="28" as="geometry" />
        </mxCell>
        <mxCell id="JkOmBQKzo-Y1mtd10rYn-194" value="sku_snapshot" style="text;strokeColor=default;fillColor=none;spacingLeft=4;spacingRight=4;overflow=hidden;rotatable=0;points=[[0,0.5],[1,0.5]];portConstraint=eastwest;fontSize=12;whiteSpace=wrap;html=1;spacing=2;" vertex="1" parent="JkOmBQKzo-Y1mtd10rYn-189">
          <mxGeometry y="138" width="180" height="28" as="geometry" />
        </mxCell>
        <mxCell id="JkOmBQKzo-Y1mtd10rYn-195" value="quantity" style="text;strokeColor=default;fillColor=none;spacingLeft=4;spacingRight=4;overflow=hidden;rotatable=0;points=[[0,0.5],[1,0.5]];portConstraint=eastwest;fontSize=12;whiteSpace=wrap;html=1;spacing=2;" vertex="1" parent="JkOmBQKzo-Y1mtd10rYn-189">
          <mxGeometry y="166" width="180" height="28" as="geometry" />
        </mxCell>
        <mxCell id="JkOmBQKzo-Y1mtd10rYn-196" value="unit_price" style="text;strokeColor=default;fillColor=none;spacingLeft=4;spacingRight=4;overflow=hidden;rotatable=0;points=[[0,0.5],[1,0.5]];portConstraint=eastwest;fontSize=12;whiteSpace=wrap;html=1;spacing=2;" vertex="1" parent="JkOmBQKzo-Y1mtd10rYn-189">
          <mxGeometry y="194" width="180" height="28" as="geometry" />
        </mxCell>
        <mxCell id="JkOmBQKzo-Y1mtd10rYn-197" value="total_price" style="text;strokeColor=default;fillColor=none;spacingLeft=4;spacingRight=4;overflow=hidden;rotatable=0;points=[[0,0.5],[1,0.5]];portConstraint=eastwest;fontSize=12;whiteSpace=wrap;html=1;spacing=2;" vertex="1" parent="JkOmBQKzo-Y1mtd10rYn-189">
          <mxGeometry y="222" width="180" height="28" as="geometry" />
        </mxCell>
        <mxCell id="JkOmBQKzo-Y1mtd10rYn-203" style="edgeStyle=orthogonalEdgeStyle;rounded=0;orthogonalLoop=1;jettySize=auto;html=1;exitX=0;exitY=0.5;exitDx=0;exitDy=0;entryX=1;entryY=0.5;entryDx=0;entryDy=0;" edge="1" parent="1" source="JkOmBQKzo-Y1mtd10rYn-177" target="PifKSuSJS3Elm9ButAE0-15">
          <mxGeometry relative="1" as="geometry" />
        </mxCell>
        <mxCell id="JkOmBQKzo-Y1mtd10rYn-204" style="edgeStyle=orthogonalEdgeStyle;rounded=0;orthogonalLoop=1;jettySize=auto;html=1;exitX=1;exitY=0.5;exitDx=0;exitDy=0;entryX=0;entryY=0.5;entryDx=0;entryDy=0;" edge="1" parent="1" source="JkOmBQKzo-Y1mtd10rYn-185" target="JkOmBQKzo-Y1mtd10rYn-162">
          <mxGeometry relative="1" as="geometry" />
        </mxCell>
        <mxCell id="JkOmBQKzo-Y1mtd10rYn-205" style="edgeStyle=orthogonalEdgeStyle;rounded=0;orthogonalLoop=1;jettySize=auto;html=1;exitX=1;exitY=0.5;exitDx=0;exitDy=0;entryX=0;entryY=0.5;entryDx=0;entryDy=0;" edge="1" parent="1" source="JkOmBQKzo-Y1mtd10rYn-186" target="JkOmBQKzo-Y1mtd10rYn-162">
          <mxGeometry relative="1" as="geometry" />
        </mxCell>
        <mxCell id="JkOmBQKzo-Y1mtd10rYn-208" style="edgeStyle=orthogonalEdgeStyle;rounded=0;orthogonalLoop=1;jettySize=auto;html=1;exitX=1;exitY=0.5;exitDx=0;exitDy=0;entryX=1;entryY=0.5;entryDx=0;entryDy=0;" edge="1" parent="1" source="JkOmBQKzo-Y1mtd10rYn-192" target="JkOmBQKzo-Y1mtd10rYn-176">
          <mxGeometry relative="1" as="geometry" />
        </mxCell>
        <mxCell id="JkOmBQKzo-Y1mtd10rYn-209" style="edgeStyle=orthogonalEdgeStyle;rounded=0;orthogonalLoop=1;jettySize=auto;html=1;exitX=0;exitY=0.5;exitDx=0;exitDy=0;entryX=1;entryY=0.5;entryDx=0;entryDy=0;" edge="1" parent="1" source="JkOmBQKzo-Y1mtd10rYn-191" target="JkOmBQKzo-Y1mtd10rYn-77">
          <mxGeometry relative="1" as="geometry" />
        </mxCell>
        <mxCell id="JkOmBQKzo-Y1mtd10rYn-210" value="Payment" style="swimlane;fontStyle=0;childLayout=stackLayout;horizontal=1;startSize=26;horizontalStack=0;resizeParent=1;resizeParentMax=0;resizeLast=0;collapsible=1;marginBottom=0;align=center;fontSize=14;" vertex="1" parent="1">
          <mxGeometry x="890" y="1217" width="180" height="334" as="geometry">
            <mxRectangle x="470" y="590" width="70" height="30" as="alternateBounds" />
          </mxGeometry>
        </mxCell>
        <mxCell id="JkOmBQKzo-Y1mtd10rYn-211" value="id&lt;span style=&quot;white-space: pre;&quot;&gt;&#x9;&lt;/span&gt;" style="text;strokeColor=default;fillColor=none;spacingLeft=4;spacingRight=4;overflow=hidden;rotatable=0;points=[[0,0.5],[1,0.5]];portConstraint=eastwest;fontSize=12;whiteSpace=wrap;html=1;spacing=2;" vertex="1" parent="JkOmBQKzo-Y1mtd10rYn-210">
          <mxGeometry y="26" width="180" height="28" as="geometry" />
        </mxCell>
        <mxCell id="JkOmBQKzo-Y1mtd10rYn-212" value="user_id" style="text;strokeColor=default;fillColor=none;spacingLeft=4;spacingRight=4;overflow=hidden;rotatable=0;points=[[0,0.5],[1,0.5]];portConstraint=eastwest;fontSize=12;whiteSpace=wrap;html=1;spacing=2;" vertex="1" parent="JkOmBQKzo-Y1mtd10rYn-210">
          <mxGeometry y="54" width="180" height="28" as="geometry" />
        </mxCell>
        <mxCell id="JkOmBQKzo-Y1mtd10rYn-213" value="order_id" style="text;strokeColor=default;fillColor=none;spacingLeft=4;spacingRight=4;overflow=hidden;rotatable=0;points=[[0,0.5],[1,0.5]];portConstraint=eastwest;fontSize=12;whiteSpace=wrap;html=1;spacing=2;" vertex="1" parent="JkOmBQKzo-Y1mtd10rYn-210">
          <mxGeometry y="82" width="180" height="28" as="geometry" />
        </mxCell>
        <mxCell id="JkOmBQKzo-Y1mtd10rYn-214" value="method" style="text;strokeColor=default;fillColor=none;spacingLeft=4;spacingRight=4;overflow=hidden;rotatable=0;points=[[0,0.5],[1,0.5]];portConstraint=eastwest;fontSize=12;whiteSpace=wrap;html=1;spacing=2;" vertex="1" parent="JkOmBQKzo-Y1mtd10rYn-210">
          <mxGeometry y="110" width="180" height="28" as="geometry" />
        </mxCell>
        <mxCell id="JkOmBQKzo-Y1mtd10rYn-215" value="provider_response" style="text;strokeColor=default;fillColor=none;spacingLeft=4;spacingRight=4;overflow=hidden;rotatable=0;points=[[0,0.5],[1,0.5]];portConstraint=eastwest;fontSize=12;whiteSpace=wrap;html=1;spacing=2;" vertex="1" parent="JkOmBQKzo-Y1mtd10rYn-210">
          <mxGeometry y="138" width="180" height="28" as="geometry" />
        </mxCell>
        <mxCell id="JkOmBQKzo-Y1mtd10rYn-216" value="amount" style="text;strokeColor=default;fillColor=none;spacingLeft=4;spacingRight=4;overflow=hidden;rotatable=0;points=[[0,0.5],[1,0.5]];portConstraint=eastwest;fontSize=12;whiteSpace=wrap;html=1;spacing=2;" vertex="1" parent="JkOmBQKzo-Y1mtd10rYn-210">
          <mxGeometry y="166" width="180" height="28" as="geometry" />
        </mxCell>
        <mxCell id="JkOmBQKzo-Y1mtd10rYn-217" value="currency" style="text;strokeColor=default;fillColor=none;spacingLeft=4;spacingRight=4;overflow=hidden;rotatable=0;points=[[0,0.5],[1,0.5]];portConstraint=eastwest;fontSize=12;whiteSpace=wrap;html=1;spacing=2;" vertex="1" parent="JkOmBQKzo-Y1mtd10rYn-210">
          <mxGeometry y="194" width="180" height="28" as="geometry" />
        </mxCell>
        <mxCell id="JkOmBQKzo-Y1mtd10rYn-218" value="status" style="text;strokeColor=default;fillColor=none;spacingLeft=4;spacingRight=4;overflow=hidden;rotatable=0;points=[[0,0.5],[1,0.5]];portConstraint=eastwest;fontSize=12;whiteSpace=wrap;html=1;spacing=2;" vertex="1" parent="JkOmBQKzo-Y1mtd10rYn-210">
          <mxGeometry y="222" width="180" height="28" as="geometry" />
        </mxCell>
        <mxCell id="JkOmBQKzo-Y1mtd10rYn-219" value="transaction_id" style="text;strokeColor=default;fillColor=none;spacingLeft=4;spacingRight=4;overflow=hidden;rotatable=0;points=[[0,0.5],[1,0.5]];portConstraint=eastwest;fontSize=12;whiteSpace=wrap;html=1;spacing=2;" vertex="1" parent="JkOmBQKzo-Y1mtd10rYn-210">
          <mxGeometry y="250" width="180" height="28" as="geometry" />
        </mxCell>
        <mxCell id="JkOmBQKzo-Y1mtd10rYn-220" value="verified_by_admin_id" style="text;strokeColor=default;fillColor=none;spacingLeft=4;spacingRight=4;overflow=hidden;rotatable=0;points=[[0,0.5],[1,0.5]];portConstraint=eastwest;fontSize=12;whiteSpace=wrap;html=1;spacing=2;" vertex="1" parent="JkOmBQKzo-Y1mtd10rYn-210">
          <mxGeometry y="278" width="180" height="28" as="geometry" />
        </mxCell>
        <mxCell id="JkOmBQKzo-Y1mtd10rYn-221" value="verified_at" style="text;strokeColor=default;fillColor=none;spacingLeft=4;spacingRight=4;overflow=hidden;rotatable=0;points=[[0,0.5],[1,0.5]];portConstraint=eastwest;fontSize=12;whiteSpace=wrap;html=1;spacing=2;" vertex="1" parent="JkOmBQKzo-Y1mtd10rYn-210">
          <mxGeometry y="306" width="180" height="28" as="geometry" />
        </mxCell>
        <mxCell id="JkOmBQKzo-Y1mtd10rYn-223" style="edgeStyle=orthogonalEdgeStyle;rounded=0;orthogonalLoop=1;jettySize=auto;html=1;exitX=0;exitY=0.5;exitDx=0;exitDy=0;entryX=1;entryY=0.5;entryDx=0;entryDy=0;" edge="1" parent="1" source="JkOmBQKzo-Y1mtd10rYn-213" target="JkOmBQKzo-Y1mtd10rYn-176">
          <mxGeometry relative="1" as="geometry" />
        </mxCell>
        <mxCell id="JkOmBQKzo-Y1mtd10rYn-225" style="edgeStyle=orthogonalEdgeStyle;rounded=0;orthogonalLoop=1;jettySize=auto;html=1;exitX=0;exitY=0.5;exitDx=0;exitDy=0;entryX=1;entryY=0.5;entryDx=0;entryDy=0;" edge="1" parent="1">
          <mxGeometry relative="1" as="geometry">
            <mxPoint x="890" y="1285" as="sourcePoint" />
            <mxPoint x="550" y="600" as="targetPoint" />
            <Array as="points">
              <mxPoint x="840" y="1285" />
              <mxPoint x="840" y="1250" />
              <mxPoint x="600" y="1250" />
              <mxPoint x="600" y="600" />
            </Array>
          </mxGeometry>
        </mxCell>
        <mxCell id="JkOmBQKzo-Y1mtd10rYn-227" value="PaymentVerification" style="swimlane;fontStyle=0;childLayout=stackLayout;horizontal=1;startSize=26;horizontalStack=0;resizeParent=1;resizeParentMax=0;resizeLast=0;collapsible=1;marginBottom=0;align=center;fontSize=14;" vertex="1" parent="1">
          <mxGeometry x="1140" y="1340" width="180" height="138" as="geometry">
            <mxRectangle x="470" y="590" width="70" height="30" as="alternateBounds" />
          </mxGeometry>
        </mxCell>
        <mxCell id="JkOmBQKzo-Y1mtd10rYn-228" value="id&lt;span style=&quot;white-space: pre;&quot;&gt;&#x9;&lt;/span&gt;" style="text;strokeColor=default;fillColor=none;spacingLeft=4;spacingRight=4;overflow=hidden;rotatable=0;points=[[0,0.5],[1,0.5]];portConstraint=eastwest;fontSize=12;whiteSpace=wrap;html=1;spacing=2;" vertex="1" parent="JkOmBQKzo-Y1mtd10rYn-227">
          <mxGeometry y="26" width="180" height="28" as="geometry" />
        </mxCell>
        <mxCell id="JkOmBQKzo-Y1mtd10rYn-229" value="payment_id" style="text;strokeColor=default;fillColor=none;spacingLeft=4;spacingRight=4;overflow=hidden;rotatable=0;points=[[0,0.5],[1,0.5]];portConstraint=eastwest;fontSize=12;whiteSpace=wrap;html=1;spacing=2;" vertex="1" parent="JkOmBQKzo-Y1mtd10rYn-227">
          <mxGeometry y="54" width="180" height="28" as="geometry" />
        </mxCell>
        <mxCell id="JkOmBQKzo-Y1mtd10rYn-230" value="admin_id" style="text;strokeColor=default;fillColor=none;spacingLeft=4;spacingRight=4;overflow=hidden;rotatable=0;points=[[0,0.5],[1,0.5]];portConstraint=eastwest;fontSize=12;whiteSpace=wrap;html=1;spacing=2;" vertex="1" parent="JkOmBQKzo-Y1mtd10rYn-227">
          <mxGeometry y="82" width="180" height="28" as="geometry" />
        </mxCell>
        <mxCell id="JkOmBQKzo-Y1mtd10rYn-231" value="notes" style="text;strokeColor=default;fillColor=none;spacingLeft=4;spacingRight=4;overflow=hidden;rotatable=0;points=[[0,0.5],[1,0.5]];portConstraint=eastwest;fontSize=12;whiteSpace=wrap;html=1;spacing=2;" vertex="1" parent="JkOmBQKzo-Y1mtd10rYn-227">
          <mxGeometry y="110" width="180" height="28" as="geometry" />
        </mxCell>
        <mxCell id="JkOmBQKzo-Y1mtd10rYn-239" style="edgeStyle=orthogonalEdgeStyle;rounded=0;orthogonalLoop=1;jettySize=auto;html=1;exitX=0;exitY=0.5;exitDx=0;exitDy=0;entryX=1;entryY=0.5;entryDx=0;entryDy=0;" edge="1" parent="1" source="JkOmBQKzo-Y1mtd10rYn-229" target="JkOmBQKzo-Y1mtd10rYn-211">
          <mxGeometry relative="1" as="geometry" />
        </mxCell>
        <mxCell id="JkOmBQKzo-Y1mtd10rYn-240" value="Coupon" style="swimlane;fontStyle=0;childLayout=stackLayout;horizontal=1;startSize=26;horizontalStack=0;resizeParent=1;resizeParentMax=0;resizeLast=0;collapsible=1;marginBottom=0;align=center;fontSize=14;" vertex="1" parent="1">
          <mxGeometry x="1330" y="620" width="180" height="334" as="geometry">
            <mxRectangle x="470" y="590" width="70" height="30" as="alternateBounds" />
          </mxGeometry>
        </mxCell>
        <mxCell id="JkOmBQKzo-Y1mtd10rYn-241" value="id&lt;span style=&quot;white-space: pre;&quot;&gt;&#x9;&lt;/span&gt;" style="text;strokeColor=default;fillColor=none;spacingLeft=4;spacingRight=4;overflow=hidden;rotatable=0;points=[[0,0.5],[1,0.5]];portConstraint=eastwest;fontSize=12;whiteSpace=wrap;html=1;spacing=2;" vertex="1" parent="JkOmBQKzo-Y1mtd10rYn-240">
          <mxGeometry y="26" width="180" height="28" as="geometry" />
        </mxCell>
        <mxCell id="JkOmBQKzo-Y1mtd10rYn-242" value="code" style="text;strokeColor=default;fillColor=none;spacingLeft=4;spacingRight=4;overflow=hidden;rotatable=0;points=[[0,0.5],[1,0.5]];portConstraint=eastwest;fontSize=12;whiteSpace=wrap;html=1;spacing=2;" vertex="1" parent="JkOmBQKzo-Y1mtd10rYn-240">
          <mxGeometry y="54" width="180" height="28" as="geometry" />
        </mxCell>
        <mxCell id="JkOmBQKzo-Y1mtd10rYn-243" value="description" style="text;strokeColor=default;fillColor=none;spacingLeft=4;spacingRight=4;overflow=hidden;rotatable=0;points=[[0,0.5],[1,0.5]];portConstraint=eastwest;fontSize=12;whiteSpace=wrap;html=1;spacing=2;" vertex="1" parent="JkOmBQKzo-Y1mtd10rYn-240">
          <mxGeometry y="82" width="180" height="28" as="geometry" />
        </mxCell>
        <mxCell id="JkOmBQKzo-Y1mtd10rYn-244" value="type" style="text;strokeColor=default;fillColor=none;spacingLeft=4;spacingRight=4;overflow=hidden;rotatable=0;points=[[0,0.5],[1,0.5]];portConstraint=eastwest;fontSize=12;whiteSpace=wrap;html=1;spacing=2;" vertex="1" parent="JkOmBQKzo-Y1mtd10rYn-240">
          <mxGeometry y="110" width="180" height="28" as="geometry" />
        </mxCell>
        <mxCell id="JkOmBQKzo-Y1mtd10rYn-245" value="value" style="text;strokeColor=default;fillColor=none;spacingLeft=4;spacingRight=4;overflow=hidden;rotatable=0;points=[[0,0.5],[1,0.5]];portConstraint=eastwest;fontSize=12;whiteSpace=wrap;html=1;spacing=2;" vertex="1" parent="JkOmBQKzo-Y1mtd10rYn-240">
          <mxGeometry y="138" width="180" height="28" as="geometry" />
        </mxCell>
        <mxCell id="JkOmBQKzo-Y1mtd10rYn-246" value="min_order_amount" style="text;strokeColor=default;fillColor=none;spacingLeft=4;spacingRight=4;overflow=hidden;rotatable=0;points=[[0,0.5],[1,0.5]];portConstraint=eastwest;fontSize=12;whiteSpace=wrap;html=1;spacing=2;" vertex="1" parent="JkOmBQKzo-Y1mtd10rYn-240">
          <mxGeometry y="166" width="180" height="28" as="geometry" />
        </mxCell>
        <mxCell id="JkOmBQKzo-Y1mtd10rYn-247" value="start_at" style="text;strokeColor=default;fillColor=none;spacingLeft=4;spacingRight=4;overflow=hidden;rotatable=0;points=[[0,0.5],[1,0.5]];portConstraint=eastwest;fontSize=12;whiteSpace=wrap;html=1;spacing=2;" vertex="1" parent="JkOmBQKzo-Y1mtd10rYn-240">
          <mxGeometry y="194" width="180" height="28" as="geometry" />
        </mxCell>
        <mxCell id="JkOmBQKzo-Y1mtd10rYn-248" value="end_at" style="text;strokeColor=default;fillColor=none;spacingLeft=4;spacingRight=4;overflow=hidden;rotatable=0;points=[[0,0.5],[1,0.5]];portConstraint=eastwest;fontSize=12;whiteSpace=wrap;html=1;spacing=2;" vertex="1" parent="JkOmBQKzo-Y1mtd10rYn-240">
          <mxGeometry y="222" width="180" height="28" as="geometry" />
        </mxCell>
        <mxCell id="JkOmBQKzo-Y1mtd10rYn-249" value="usage_limit" style="text;strokeColor=default;fillColor=none;spacingLeft=4;spacingRight=4;overflow=hidden;rotatable=0;points=[[0,0.5],[1,0.5]];portConstraint=eastwest;fontSize=12;whiteSpace=wrap;html=1;spacing=2;" vertex="1" parent="JkOmBQKzo-Y1mtd10rYn-240">
          <mxGeometry y="250" width="180" height="28" as="geometry" />
        </mxCell>
        <mxCell id="JkOmBQKzo-Y1mtd10rYn-250" value="per_user_limit" style="text;strokeColor=default;fillColor=none;spacingLeft=4;spacingRight=4;overflow=hidden;rotatable=0;points=[[0,0.5],[1,0.5]];portConstraint=eastwest;fontSize=12;whiteSpace=wrap;html=1;spacing=2;" vertex="1" parent="JkOmBQKzo-Y1mtd10rYn-240">
          <mxGeometry y="278" width="180" height="28" as="geometry" />
        </mxCell>
        <mxCell id="JkOmBQKzo-Y1mtd10rYn-251" value="is_active" style="text;strokeColor=default;fillColor=none;spacingLeft=4;spacingRight=4;overflow=hidden;rotatable=0;points=[[0,0.5],[1,0.5]];portConstraint=eastwest;fontSize=12;whiteSpace=wrap;html=1;spacing=2;" vertex="1" parent="JkOmBQKzo-Y1mtd10rYn-240">
          <mxGeometry y="306" width="180" height="28" as="geometry" />
        </mxCell>
        <mxCell id="JkOmBQKzo-Y1mtd10rYn-253" value="CouponUsage" style="swimlane;fontStyle=0;childLayout=stackLayout;horizontal=1;startSize=26;horizontalStack=0;resizeParent=1;resizeParentMax=0;resizeLast=0;collapsible=1;marginBottom=0;align=center;fontSize=14;" vertex="1" parent="1">
          <mxGeometry x="1590" y="700" width="180" height="138" as="geometry">
            <mxRectangle x="470" y="590" width="70" height="30" as="alternateBounds" />
          </mxGeometry>
        </mxCell>
        <mxCell id="JkOmBQKzo-Y1mtd10rYn-254" value="id&lt;span style=&quot;white-space: pre;&quot;&gt;&#x9;&lt;/span&gt;" style="text;strokeColor=default;fillColor=none;spacingLeft=4;spacingRight=4;overflow=hidden;rotatable=0;points=[[0,0.5],[1,0.5]];portConstraint=eastwest;fontSize=12;whiteSpace=wrap;html=1;spacing=2;" vertex="1" parent="JkOmBQKzo-Y1mtd10rYn-253">
          <mxGeometry y="26" width="180" height="28" as="geometry" />
        </mxCell>
        <mxCell id="JkOmBQKzo-Y1mtd10rYn-255" value="coupon_id" style="text;strokeColor=default;fillColor=none;spacingLeft=4;spacingRight=4;overflow=hidden;rotatable=0;points=[[0,0.5],[1,0.5]];portConstraint=eastwest;fontSize=12;whiteSpace=wrap;html=1;spacing=2;" vertex="1" parent="JkOmBQKzo-Y1mtd10rYn-253">
          <mxGeometry y="54" width="180" height="28" as="geometry" />
        </mxCell>
        <mxCell id="JkOmBQKzo-Y1mtd10rYn-256" value="user_id" style="text;strokeColor=default;fillColor=none;spacingLeft=4;spacingRight=4;overflow=hidden;rotatable=0;points=[[0,0.5],[1,0.5]];portConstraint=eastwest;fontSize=12;whiteSpace=wrap;html=1;spacing=2;" vertex="1" parent="JkOmBQKzo-Y1mtd10rYn-253">
          <mxGeometry y="82" width="180" height="28" as="geometry" />
        </mxCell>
        <mxCell id="JkOmBQKzo-Y1mtd10rYn-257" value="order_id" style="text;strokeColor=default;fillColor=none;spacingLeft=4;spacingRight=4;overflow=hidden;rotatable=0;points=[[0,0.5],[1,0.5]];portConstraint=eastwest;fontSize=12;whiteSpace=wrap;html=1;spacing=2;" vertex="1" parent="JkOmBQKzo-Y1mtd10rYn-253">
          <mxGeometry y="110" width="180" height="28" as="geometry" />
        </mxCell>
        <mxCell id="JkOmBQKzo-Y1mtd10rYn-265" style="edgeStyle=orthogonalEdgeStyle;rounded=0;orthogonalLoop=1;jettySize=auto;html=1;exitX=0;exitY=0.5;exitDx=0;exitDy=0;entryX=1;entryY=0.5;entryDx=0;entryDy=0;" edge="1" parent="1" source="JkOmBQKzo-Y1mtd10rYn-255" target="JkOmBQKzo-Y1mtd10rYn-241">
          <mxGeometry relative="1" as="geometry" />
        </mxCell>
        <mxCell id="JkOmBQKzo-Y1mtd10rYn-266" value="Promotion" style="swimlane;fontStyle=0;childLayout=stackLayout;horizontal=1;startSize=26;horizontalStack=0;resizeParent=1;resizeParentMax=0;resizeLast=0;collapsible=1;marginBottom=0;align=center;fontSize=14;" vertex="1" parent="1">
          <mxGeometry x="1330" y="70" width="180" height="306" as="geometry">
            <mxRectangle x="470" y="590" width="70" height="30" as="alternateBounds" />
          </mxGeometry>
        </mxCell>
        <mxCell id="JkOmBQKzo-Y1mtd10rYn-267" value="id&lt;span style=&quot;white-space: pre;&quot;&gt;&#x9;&lt;/span&gt;" style="text;strokeColor=default;fillColor=none;spacingLeft=4;spacingRight=4;overflow=hidden;rotatable=0;points=[[0,0.5],[1,0.5]];portConstraint=eastwest;fontSize=12;whiteSpace=wrap;html=1;spacing=2;" vertex="1" parent="JkOmBQKzo-Y1mtd10rYn-266">
          <mxGeometry y="26" width="180" height="28" as="geometry" />
        </mxCell>
        <mxCell id="JkOmBQKzo-Y1mtd10rYn-268" value="title" style="text;strokeColor=default;fillColor=none;spacingLeft=4;spacingRight=4;overflow=hidden;rotatable=0;points=[[0,0.5],[1,0.5]];portConstraint=eastwest;fontSize=12;whiteSpace=wrap;html=1;spacing=2;" vertex="1" parent="JkOmBQKzo-Y1mtd10rYn-266">
          <mxGeometry y="54" width="180" height="28" as="geometry" />
        </mxCell>
        <mxCell id="JkOmBQKzo-Y1mtd10rYn-269" value="description" style="text;strokeColor=default;fillColor=none;spacingLeft=4;spacingRight=4;overflow=hidden;rotatable=0;points=[[0,0.5],[1,0.5]];portConstraint=eastwest;fontSize=12;whiteSpace=wrap;html=1;spacing=2;" vertex="1" parent="JkOmBQKzo-Y1mtd10rYn-266">
          <mxGeometry y="82" width="180" height="28" as="geometry" />
        </mxCell>
        <mxCell id="JkOmBQKzo-Y1mtd10rYn-270" value="type" style="text;strokeColor=default;fillColor=none;spacingLeft=4;spacingRight=4;overflow=hidden;rotatable=0;points=[[0,0.5],[1,0.5]];portConstraint=eastwest;fontSize=12;whiteSpace=wrap;html=1;spacing=2;" vertex="1" parent="JkOmBQKzo-Y1mtd10rYn-266">
          <mxGeometry y="110" width="180" height="28" as="geometry" />
        </mxCell>
        <mxCell id="JkOmBQKzo-Y1mtd10rYn-271" value="value" style="text;strokeColor=default;fillColor=none;spacingLeft=4;spacingRight=4;overflow=hidden;rotatable=0;points=[[0,0.5],[1,0.5]];portConstraint=eastwest;fontSize=12;whiteSpace=wrap;html=1;spacing=2;" vertex="1" parent="JkOmBQKzo-Y1mtd10rYn-266">
          <mxGeometry y="138" width="180" height="28" as="geometry" />
        </mxCell>
        <mxCell id="JkOmBQKzo-Y1mtd10rYn-273" value="start_at" style="text;strokeColor=default;fillColor=none;spacingLeft=4;spacingRight=4;overflow=hidden;rotatable=0;points=[[0,0.5],[1,0.5]];portConstraint=eastwest;fontSize=12;whiteSpace=wrap;html=1;spacing=2;" vertex="1" parent="JkOmBQKzo-Y1mtd10rYn-266">
          <mxGeometry y="166" width="180" height="28" as="geometry" />
        </mxCell>
        <mxCell id="JkOmBQKzo-Y1mtd10rYn-274" value="end_at" style="text;strokeColor=default;fillColor=none;spacingLeft=4;spacingRight=4;overflow=hidden;rotatable=0;points=[[0,0.5],[1,0.5]];portConstraint=eastwest;fontSize=12;whiteSpace=wrap;html=1;spacing=2;" vertex="1" parent="JkOmBQKzo-Y1mtd10rYn-266">
          <mxGeometry y="194" width="180" height="28" as="geometry" />
        </mxCell>
        <mxCell id="JkOmBQKzo-Y1mtd10rYn-275" value="usage_limit" style="text;strokeColor=default;fillColor=none;spacingLeft=4;spacingRight=4;overflow=hidden;rotatable=0;points=[[0,0.5],[1,0.5]];portConstraint=eastwest;fontSize=12;whiteSpace=wrap;html=1;spacing=2;" vertex="1" parent="JkOmBQKzo-Y1mtd10rYn-266">
          <mxGeometry y="222" width="180" height="28" as="geometry" />
        </mxCell>
        <mxCell id="JkOmBQKzo-Y1mtd10rYn-276" value="per_user_limit" style="text;strokeColor=default;fillColor=none;spacingLeft=4;spacingRight=4;overflow=hidden;rotatable=0;points=[[0,0.5],[1,0.5]];portConstraint=eastwest;fontSize=12;whiteSpace=wrap;html=1;spacing=2;" vertex="1" parent="JkOmBQKzo-Y1mtd10rYn-266">
          <mxGeometry y="250" width="180" height="28" as="geometry" />
        </mxCell>
        <mxCell id="JkOmBQKzo-Y1mtd10rYn-277" value="is_active" style="text;strokeColor=default;fillColor=none;spacingLeft=4;spacingRight=4;overflow=hidden;rotatable=0;points=[[0,0.5],[1,0.5]];portConstraint=eastwest;fontSize=12;whiteSpace=wrap;html=1;spacing=2;" vertex="1" parent="JkOmBQKzo-Y1mtd10rYn-266">
          <mxGeometry y="278" width="180" height="28" as="geometry" />
        </mxCell>
        <mxCell id="JkOmBQKzo-Y1mtd10rYn-278" value="PromotionItem" style="swimlane;fontStyle=0;childLayout=stackLayout;horizontal=1;startSize=26;horizontalStack=0;resizeParent=1;resizeParentMax=0;resizeLast=0;collapsible=1;marginBottom=0;align=center;fontSize=14;" vertex="1" parent="1">
          <mxGeometry x="1620" y="140" width="180" height="110" as="geometry">
            <mxRectangle x="470" y="590" width="70" height="30" as="alternateBounds" />
          </mxGeometry>
        </mxCell>
        <mxCell id="JkOmBQKzo-Y1mtd10rYn-279" value="id&lt;span style=&quot;white-space: pre;&quot;&gt;&#x9;&lt;/span&gt;" style="text;strokeColor=default;fillColor=none;spacingLeft=4;spacingRight=4;overflow=hidden;rotatable=0;points=[[0,0.5],[1,0.5]];portConstraint=eastwest;fontSize=12;whiteSpace=wrap;html=1;spacing=2;" vertex="1" parent="JkOmBQKzo-Y1mtd10rYn-278">
          <mxGeometry y="26" width="180" height="28" as="geometry" />
        </mxCell>
        <mxCell id="JkOmBQKzo-Y1mtd10rYn-280" value="promotion_id" style="text;strokeColor=default;fillColor=none;spacingLeft=4;spacingRight=4;overflow=hidden;rotatable=0;points=[[0,0.5],[1,0.5]];portConstraint=eastwest;fontSize=12;whiteSpace=wrap;html=1;spacing=2;" vertex="1" parent="JkOmBQKzo-Y1mtd10rYn-278">
          <mxGeometry y="54" width="180" height="28" as="geometry" />
        </mxCell>
        <mxCell id="JkOmBQKzo-Y1mtd10rYn-281" value="item_id" style="text;strokeColor=default;fillColor=none;spacingLeft=4;spacingRight=4;overflow=hidden;rotatable=0;points=[[0,0.5],[1,0.5]];portConstraint=eastwest;fontSize=12;whiteSpace=wrap;html=1;spacing=2;" vertex="1" parent="JkOmBQKzo-Y1mtd10rYn-278">
          <mxGeometry y="82" width="180" height="28" as="geometry" />
        </mxCell>
        <mxCell id="JkOmBQKzo-Y1mtd10rYn-289" value="PromotionCategory" style="swimlane;fontStyle=0;childLayout=stackLayout;horizontal=1;startSize=26;horizontalStack=0;resizeParent=1;resizeParentMax=0;resizeLast=0;collapsible=1;marginBottom=0;align=center;fontSize=14;" vertex="1" parent="1">
          <mxGeometry x="1620" y="300" width="180" height="110" as="geometry">
            <mxRectangle x="470" y="590" width="70" height="30" as="alternateBounds" />
          </mxGeometry>
        </mxCell>
        <mxCell id="JkOmBQKzo-Y1mtd10rYn-290" value="id&lt;span style=&quot;white-space: pre;&quot;&gt;&#x9;&lt;/span&gt;" style="text;strokeColor=default;fillColor=none;spacingLeft=4;spacingRight=4;overflow=hidden;rotatable=0;points=[[0,0.5],[1,0.5]];portConstraint=eastwest;fontSize=12;whiteSpace=wrap;html=1;spacing=2;" vertex="1" parent="JkOmBQKzo-Y1mtd10rYn-289">
          <mxGeometry y="26" width="180" height="28" as="geometry" />
        </mxCell>
        <mxCell id="JkOmBQKzo-Y1mtd10rYn-291" value="promotion_id" style="text;strokeColor=default;fillColor=none;spacingLeft=4;spacingRight=4;overflow=hidden;rotatable=0;points=[[0,0.5],[1,0.5]];portConstraint=eastwest;fontSize=12;whiteSpace=wrap;html=1;spacing=2;" vertex="1" parent="JkOmBQKzo-Y1mtd10rYn-289">
          <mxGeometry y="54" width="180" height="28" as="geometry" />
        </mxCell>
        <mxCell id="JkOmBQKzo-Y1mtd10rYn-292" value="category_id" style="text;strokeColor=default;fillColor=none;spacingLeft=4;spacingRight=4;overflow=hidden;rotatable=0;points=[[0,0.5],[1,0.5]];portConstraint=eastwest;fontSize=12;whiteSpace=wrap;html=1;spacing=2;" vertex="1" parent="JkOmBQKzo-Y1mtd10rYn-289">
          <mxGeometry y="82" width="180" height="28" as="geometry" />
        </mxCell>
        <mxCell id="JkOmBQKzo-Y1mtd10rYn-293" value="PromotionArtist" style="swimlane;fontStyle=0;childLayout=stackLayout;horizontal=1;startSize=26;horizontalStack=0;resizeParent=1;resizeParentMax=0;resizeLast=0;collapsible=1;marginBottom=0;align=center;fontSize=14;" vertex="1" parent="1">
          <mxGeometry x="1580" y="-20" width="180" height="110" as="geometry">
            <mxRectangle x="470" y="590" width="70" height="30" as="alternateBounds" />
          </mxGeometry>
        </mxCell>
        <mxCell id="JkOmBQKzo-Y1mtd10rYn-294" value="id&lt;span style=&quot;white-space: pre;&quot;&gt;&#x9;&lt;/span&gt;" style="text;strokeColor=default;fillColor=none;spacingLeft=4;spacingRight=4;overflow=hidden;rotatable=0;points=[[0,0.5],[1,0.5]];portConstraint=eastwest;fontSize=12;whiteSpace=wrap;html=1;spacing=2;" vertex="1" parent="JkOmBQKzo-Y1mtd10rYn-293">
          <mxGeometry y="26" width="180" height="28" as="geometry" />
        </mxCell>
        <mxCell id="JkOmBQKzo-Y1mtd10rYn-295" value="promotion_id" style="text;strokeColor=default;fillColor=none;spacingLeft=4;spacingRight=4;overflow=hidden;rotatable=0;points=[[0,0.5],[1,0.5]];portConstraint=eastwest;fontSize=12;whiteSpace=wrap;html=1;spacing=2;" vertex="1" parent="JkOmBQKzo-Y1mtd10rYn-293">
          <mxGeometry y="54" width="180" height="28" as="geometry" />
        </mxCell>
        <mxCell id="JkOmBQKzo-Y1mtd10rYn-296" value="artist_id" style="text;strokeColor=default;fillColor=none;spacingLeft=4;spacingRight=4;overflow=hidden;rotatable=0;points=[[0,0.5],[1,0.5]];portConstraint=eastwest;fontSize=12;whiteSpace=wrap;html=1;spacing=2;" vertex="1" parent="JkOmBQKzo-Y1mtd10rYn-293">
          <mxGeometry y="82" width="180" height="28" as="geometry" />
        </mxCell>
        <mxCell id="JkOmBQKzo-Y1mtd10rYn-297" value="Review" style="swimlane;fontStyle=0;childLayout=stackLayout;horizontal=1;startSize=26;horizontalStack=0;resizeParent=1;resizeParentMax=0;resizeLast=0;collapsible=1;marginBottom=0;align=center;fontSize=14;" vertex="1" parent="1">
          <mxGeometry x="1080" y="-210" width="180" height="250" as="geometry">
            <mxRectangle x="470" y="590" width="70" height="30" as="alternateBounds" />
          </mxGeometry>
        </mxCell>
        <mxCell id="JkOmBQKzo-Y1mtd10rYn-298" value="id&lt;span style=&quot;white-space: pre;&quot;&gt;&#x9;&lt;/span&gt;" style="text;strokeColor=default;fillColor=none;spacingLeft=4;spacingRight=4;overflow=hidden;rotatable=0;points=[[0,0.5],[1,0.5]];portConstraint=eastwest;fontSize=12;whiteSpace=wrap;html=1;spacing=2;" vertex="1" parent="JkOmBQKzo-Y1mtd10rYn-297">
          <mxGeometry y="26" width="180" height="28" as="geometry" />
        </mxCell>
        <mxCell id="JkOmBQKzo-Y1mtd10rYn-299" value="item_id" style="text;strokeColor=default;fillColor=none;spacingLeft=4;spacingRight=4;overflow=hidden;rotatable=0;points=[[0,0.5],[1,0.5]];portConstraint=eastwest;fontSize=12;whiteSpace=wrap;html=1;spacing=2;" vertex="1" parent="JkOmBQKzo-Y1mtd10rYn-297">
          <mxGeometry y="54" width="180" height="28" as="geometry" />
        </mxCell>
        <mxCell id="JkOmBQKzo-Y1mtd10rYn-300" value="user_id" style="text;strokeColor=default;fillColor=none;spacingLeft=4;spacingRight=4;overflow=hidden;rotatable=0;points=[[0,0.5],[1,0.5]];portConstraint=eastwest;fontSize=12;whiteSpace=wrap;html=1;spacing=2;" vertex="1" parent="JkOmBQKzo-Y1mtd10rYn-297">
          <mxGeometry y="82" width="180" height="28" as="geometry" />
        </mxCell>
        <mxCell id="JkOmBQKzo-Y1mtd10rYn-301" value="rating" style="text;strokeColor=default;fillColor=none;spacingLeft=4;spacingRight=4;overflow=hidden;rotatable=0;points=[[0,0.5],[1,0.5]];portConstraint=eastwest;fontSize=12;whiteSpace=wrap;html=1;spacing=2;" vertex="1" parent="JkOmBQKzo-Y1mtd10rYn-297">
          <mxGeometry y="110" width="180" height="28" as="geometry" />
        </mxCell>
        <mxCell id="JkOmBQKzo-Y1mtd10rYn-302" value="title" style="text;strokeColor=default;fillColor=none;spacingLeft=4;spacingRight=4;overflow=hidden;rotatable=0;points=[[0,0.5],[1,0.5]];portConstraint=eastwest;fontSize=12;whiteSpace=wrap;html=1;spacing=2;" vertex="1" parent="JkOmBQKzo-Y1mtd10rYn-297">
          <mxGeometry y="138" width="180" height="28" as="geometry" />
        </mxCell>
        <mxCell id="JkOmBQKzo-Y1mtd10rYn-303" value="content" style="text;strokeColor=default;fillColor=none;spacingLeft=4;spacingRight=4;overflow=hidden;rotatable=0;points=[[0,0.5],[1,0.5]];portConstraint=eastwest;fontSize=12;whiteSpace=wrap;html=1;spacing=2;" vertex="1" parent="JkOmBQKzo-Y1mtd10rYn-297">
          <mxGeometry y="166" width="180" height="28" as="geometry" />
        </mxCell>
        <mxCell id="JkOmBQKzo-Y1mtd10rYn-304" value="is_approved" style="text;strokeColor=default;fillColor=none;spacingLeft=4;spacingRight=4;overflow=hidden;rotatable=0;points=[[0,0.5],[1,0.5]];portConstraint=eastwest;fontSize=12;whiteSpace=wrap;html=1;spacing=2;" vertex="1" parent="JkOmBQKzo-Y1mtd10rYn-297">
          <mxGeometry y="194" width="180" height="28" as="geometry" />
        </mxCell>
        <mxCell id="JkOmBQKzo-Y1mtd10rYn-305" value="approved_by_admin_id" style="text;strokeColor=default;fillColor=none;spacingLeft=4;spacingRight=4;overflow=hidden;rotatable=0;points=[[0,0.5],[1,0.5]];portConstraint=eastwest;fontSize=12;whiteSpace=wrap;html=1;spacing=2;" vertex="1" parent="JkOmBQKzo-Y1mtd10rYn-297">
          <mxGeometry y="222" width="180" height="28" as="geometry" />
        </mxCell>
        <mxCell id="JkOmBQKzo-Y1mtd10rYn-308" value="ClientDiary" style="swimlane;fontStyle=0;childLayout=stackLayout;horizontal=1;startSize=26;horizontalStack=0;resizeParent=1;resizeParentMax=0;resizeLast=0;collapsible=1;marginBottom=0;align=center;fontSize=14;" vertex="1" parent="1">
          <mxGeometry x="730" y="-310" width="180" height="166" as="geometry">
            <mxRectangle x="470" y="590" width="70" height="30" as="alternateBounds" />
          </mxGeometry>
        </mxCell>
        <mxCell id="JkOmBQKzo-Y1mtd10rYn-309" value="id&lt;span style=&quot;white-space: pre;&quot;&gt;&#x9;&lt;/span&gt;" style="text;strokeColor=default;fillColor=none;spacingLeft=4;spacingRight=4;overflow=hidden;rotatable=0;points=[[0,0.5],[1,0.5]];portConstraint=eastwest;fontSize=12;whiteSpace=wrap;html=1;spacing=2;" vertex="1" parent="JkOmBQKzo-Y1mtd10rYn-308">
          <mxGeometry y="26" width="180" height="28" as="geometry" />
        </mxCell>
        <mxCell id="JkOmBQKzo-Y1mtd10rYn-310" value="client_name" style="text;strokeColor=default;fillColor=none;spacingLeft=4;spacingRight=4;overflow=hidden;rotatable=0;points=[[0,0.5],[1,0.5]];portConstraint=eastwest;fontSize=12;whiteSpace=wrap;html=1;spacing=2;" vertex="1" parent="JkOmBQKzo-Y1mtd10rYn-308">
          <mxGeometry y="54" width="180" height="28" as="geometry" />
        </mxCell>
        <mxCell id="JkOmBQKzo-Y1mtd10rYn-311" value="item_id" style="text;strokeColor=default;fillColor=none;spacingLeft=4;spacingRight=4;overflow=hidden;rotatable=0;points=[[0,0.5],[1,0.5]];portConstraint=eastwest;fontSize=12;whiteSpace=wrap;html=1;spacing=2;" vertex="1" parent="JkOmBQKzo-Y1mtd10rYn-308">
          <mxGeometry y="82" width="180" height="28" as="geometry" />
        </mxCell>
        <mxCell id="JkOmBQKzo-Y1mtd10rYn-312" value="image_id" style="text;strokeColor=default;fillColor=none;spacingLeft=4;spacingRight=4;overflow=hidden;rotatable=0;points=[[0,0.5],[1,0.5]];portConstraint=eastwest;fontSize=12;whiteSpace=wrap;html=1;spacing=2;" vertex="1" parent="JkOmBQKzo-Y1mtd10rYn-308">
          <mxGeometry y="110" width="180" height="28" as="geometry" />
        </mxCell>
        <mxCell id="JkOmBQKzo-Y1mtd10rYn-313" value="is_published" style="text;strokeColor=default;fillColor=none;spacingLeft=4;spacingRight=4;overflow=hidden;rotatable=0;points=[[0,0.5],[1,0.5]];portConstraint=eastwest;fontSize=12;whiteSpace=wrap;html=1;spacing=2;" vertex="1" parent="JkOmBQKzo-Y1mtd10rYn-308">
          <mxGeometry y="138" width="180" height="28" as="geometry" />
        </mxCell>
        <mxCell id="JkOmBQKzo-Y1mtd10rYn-317" value="NewsletterSubscription" style="swimlane;fontStyle=0;childLayout=stackLayout;horizontal=1;startSize=26;horizontalStack=0;resizeParent=1;resizeParentMax=0;resizeLast=0;collapsible=1;marginBottom=0;align=center;fontSize=14;" vertex="1" parent="1">
          <mxGeometry x="400" y="-420" width="180" height="110" as="geometry">
            <mxRectangle x="470" y="590" width="70" height="30" as="alternateBounds" />
          </mxGeometry>
        </mxCell>
        <mxCell id="JkOmBQKzo-Y1mtd10rYn-318" value="id&lt;span style=&quot;white-space: pre;&quot;&gt;&#x9;&lt;/span&gt;" style="text;strokeColor=default;fillColor=none;spacingLeft=4;spacingRight=4;overflow=hidden;rotatable=0;points=[[0,0.5],[1,0.5]];portConstraint=eastwest;fontSize=12;whiteSpace=wrap;html=1;spacing=2;" vertex="1" parent="JkOmBQKzo-Y1mtd10rYn-317">
          <mxGeometry y="26" width="180" height="28" as="geometry" />
        </mxCell>
        <mxCell id="JkOmBQKzo-Y1mtd10rYn-319" value="email" style="text;strokeColor=default;fillColor=none;spacingLeft=4;spacingRight=4;overflow=hidden;rotatable=0;points=[[0,0.5],[1,0.5]];portConstraint=eastwest;fontSize=12;whiteSpace=wrap;html=1;spacing=2;" vertex="1" parent="JkOmBQKzo-Y1mtd10rYn-317">
          <mxGeometry y="54" width="180" height="28" as="geometry" />
        </mxCell>
        <mxCell id="JkOmBQKzo-Y1mtd10rYn-320" value="is_confirmed" style="text;strokeColor=default;fillColor=none;spacingLeft=4;spacingRight=4;overflow=hidden;rotatable=0;points=[[0,0.5],[1,0.5]];portConstraint=eastwest;fontSize=12;whiteSpace=wrap;html=1;spacing=2;" vertex="1" parent="JkOmBQKzo-Y1mtd10rYn-317">
          <mxGeometry y="82" width="180" height="28" as="geometry" />
        </mxCell>
        <mxCell id="JkOmBQKzo-Y1mtd10rYn-323" value="Announcment" style="swimlane;fontStyle=0;childLayout=stackLayout;horizontal=1;startSize=26;horizontalStack=0;resizeParent=1;resizeParentMax=0;resizeLast=0;collapsible=1;marginBottom=0;align=center;fontSize=14;" vertex="1" parent="1">
          <mxGeometry x="450" y="-270" width="180" height="194" as="geometry">
            <mxRectangle x="470" y="590" width="70" height="30" as="alternateBounds" />
          </mxGeometry>
        </mxCell>
        <mxCell id="JkOmBQKzo-Y1mtd10rYn-324" value="id&lt;span style=&quot;white-space: pre;&quot;&gt;&#x9;&lt;/span&gt;" style="text;strokeColor=default;fillColor=none;spacingLeft=4;spacingRight=4;overflow=hidden;rotatable=0;points=[[0,0.5],[1,0.5]];portConstraint=eastwest;fontSize=12;whiteSpace=wrap;html=1;spacing=2;" vertex="1" parent="JkOmBQKzo-Y1mtd10rYn-323">
          <mxGeometry y="26" width="180" height="28" as="geometry" />
        </mxCell>
        <mxCell id="JkOmBQKzo-Y1mtd10rYn-325" value="title" style="text;strokeColor=default;fillColor=none;spacingLeft=4;spacingRight=4;overflow=hidden;rotatable=0;points=[[0,0.5],[1,0.5]];portConstraint=eastwest;fontSize=12;whiteSpace=wrap;html=1;spacing=2;" vertex="1" parent="JkOmBQKzo-Y1mtd10rYn-323">
          <mxGeometry y="54" width="180" height="28" as="geometry" />
        </mxCell>
        <mxCell id="JkOmBQKzo-Y1mtd10rYn-326" value="content" style="text;strokeColor=default;fillColor=none;spacingLeft=4;spacingRight=4;overflow=hidden;rotatable=0;points=[[0,0.5],[1,0.5]];portConstraint=eastwest;fontSize=12;whiteSpace=wrap;html=1;spacing=2;" vertex="1" parent="JkOmBQKzo-Y1mtd10rYn-323">
          <mxGeometry y="82" width="180" height="28" as="geometry" />
        </mxCell>
        <mxCell id="JkOmBQKzo-Y1mtd10rYn-327" value="start_at" style="text;strokeColor=default;fillColor=none;spacingLeft=4;spacingRight=4;overflow=hidden;rotatable=0;points=[[0,0.5],[1,0.5]];portConstraint=eastwest;fontSize=12;whiteSpace=wrap;html=1;spacing=2;" vertex="1" parent="JkOmBQKzo-Y1mtd10rYn-323">
          <mxGeometry y="110" width="180" height="28" as="geometry" />
        </mxCell>
        <mxCell id="JkOmBQKzo-Y1mtd10rYn-328" value="end_at" style="text;strokeColor=default;fillColor=none;spacingLeft=4;spacingRight=4;overflow=hidden;rotatable=0;points=[[0,0.5],[1,0.5]];portConstraint=eastwest;fontSize=12;whiteSpace=wrap;html=1;spacing=2;" vertex="1" parent="JkOmBQKzo-Y1mtd10rYn-323">
          <mxGeometry y="138" width="180" height="28" as="geometry" />
        </mxCell>
        <mxCell id="JkOmBQKzo-Y1mtd10rYn-329" value="is_active" style="text;strokeColor=default;fillColor=none;spacingLeft=4;spacingRight=4;overflow=hidden;rotatable=0;points=[[0,0.5],[1,0.5]];portConstraint=eastwest;fontSize=12;whiteSpace=wrap;html=1;spacing=2;" vertex="1" parent="JkOmBQKzo-Y1mtd10rYn-323">
          <mxGeometry y="166" width="180" height="28" as="geometry" />
        </mxCell>
      </root>
    </mxGraphModel>
  </diagram>
</mxfile>
